<?xml version="1.0" standalone="no"?>
<!DOCTYPE svg PUBLIC "-//W3C//DTD SVG 1.1//EN" "http://www.w3.org/Graphics/SVG/1.1/DTD/svg11.dtd" >
<svg xmlns="http://www.w3.org/2000/svg">
<metadata></metadata>
<defs>
<font id="foundation_sans_outlineRg" horiz-adv-x="1024" >
<font-face units-per-em="2048" ascent="1690" descent="-358" />
<missing-glyph horiz-adv-x="614" />
<glyph unicode="&#xfb01;" horiz-adv-x="1171" d="M8 780v217h156v35q0 98 16 152t56 96q89 92 280 92q45 0 154 -8v-229q-47 4 -97 4q-71 0 -89.5 -14t-18.5 -66v-62h188v-217h-186v-780h-303v780h-156zM51 823h156v-780h217v780h186v131h-188v105q0 70 29.5 96.5t109.5 26.5q41 0 66 -2v145q-66 4 -97 4 q-107 0 -173.5 -22.5t-104.5 -73.5q-25 -34 -35 -78t-10 -123v-78h-156v-131zM774 0v999h301v-999h-301zM774 1106v264h301v-264h-301zM817 43h215v913h-215v-913zM817 1149h215v178h-215v-178z" />
<glyph unicode="&#xfb02;" horiz-adv-x="1171" d="M8 780v217h156v35q0 98 16 152t56 96q89 92 280 92q45 0 154 -8v-229q-47 4 -97 4q-71 0 -89.5 -14t-18.5 -66v-62h188v-217h-186v-780h-303v780h-156zM51 823h156v-780h217v780h186v131h-188v105q0 70 29.5 96.5t109.5 26.5q41 0 66 -2v145q-66 4 -97 4 q-107 0 -173.5 -22.5t-104.5 -73.5q-25 -34 -35 -78t-10 -123v-78h-156v-131zM774 0v1366h301v-1366h-301zM817 43h215v1280h-215v-1280z" />
<glyph horiz-adv-x="2048" />
<glyph horiz-adv-x="2048" />
<glyph unicode="&#xd;" horiz-adv-x="2048" />
<glyph unicode=" "  horiz-adv-x="614" />
<glyph unicode="&#x09;" horiz-adv-x="614" />
<glyph unicode="&#xa0;" horiz-adv-x="614" />
<glyph unicode="!" horiz-adv-x="567" d="M127 0v317h315v-317h-315zM127 993v373h315v-373l-75 -592h-166zM170 43h229v231h-229v-231zM170 993l70 -551h88l71 551v330h-229v-330z" />
<glyph unicode="&#x22;" horiz-adv-x="907" d="M31 1366h401l-65 -571h-271zM80 1323l55 -485h193l55 485h-303zM475 1366h402l-66 -571h-270zM524 1323l56 -485h192l55 485h-303z" />
<glyph unicode="#" horiz-adv-x="1323" d="M121 408l31 204h200l21 131h-203l29 205h202l43 295h215l-41 -295h148l41 295h217l-43 -295h221l-31 -205h-221l-18 -131h221l-29 -204h-221l-47 -322h-217l47 322h-147l-47 -322h-216l48 322h-203zM172 451h203l-47 -322h127l47 322h235l-47 -322h127l47 322h221l19 118 h-223l32 217h222l16 119h-221l43 295h-127l-43 -295h-236l43 295h-129l-41 -295h-202l-19 -119h203l-31 -217h-203zM518 569l31 217h237l-32 -217h-236zM569 612h148l18 131h-147z" />
<glyph unicode="$" horiz-adv-x="1206" d="M57 477h312v-16q0 -92 33 -144t102 -71v354q-119 34 -197 68q-103 46 -157 129t-54 196q0 160 112 267t296 122v189h201v-189q177 -15 290 -125q101 -98 101 -264q0 -16 -2 -28h-293q3 71 -22 119t-74 61v-311q229 -49 331.5 -145t102.5 -259q0 -97 -42.5 -184 t-117.5 -146q-101 -80 -274 -100v-205h-201v205q-207 12 -332 145t-115 332zM100 434q6 -177 127.5 -284.5t319.5 -110.5v-201h112v201q120 10 190.5 36.5t129.5 82.5q55 52 85 123.5t30 148.5q0 154 -100 239t-335 132v395q83 -6 130 -54.5t55 -133.5h207q1 145 -107 237 t-285 98v185h-112v-185q-81 -4 -130 -17t-102 -42q-86 -46 -131 -120.5t-45 -170.5q0 -202 187 -286q64 -30 221 -76v-438q-109 19 -163.5 77.5t-57.5 163.5h-226zM346 1014q0 79 57 133q26 25 57 35.5t87 15.5v-367q-103 19 -152 63.5t-49 119.5zM389 1014q0 -101 115 -129 v264q-51 -8 -83 -45.5t-32 -89.5zM659 195v407q65 -15 99.5 -29.5t60.5 -37.5q58 -51 58 -136q0 -47 -21.5 -90t-58.5 -71q-46 -33 -138 -43zM705 244q60 12 94.5 53t34.5 100q0 113 -129 150v-303z" />
<glyph unicode="%" horiz-adv-x="1916" d="M154 973q0 182 88.5 281.5t249.5 99.5q154 0 238.5 -98t84.5 -275q0 -189 -86 -290t-246 -101q-157 0 -243 100.5t-86 282.5zM197 975q0 -164 74 -253t212 -89q141 0 215 89t74 261q0 123 -39 197q-32 62 -97 97.5t-144 35.5q-143 0 -219 -87t-76 -251zM338 967 q0 132 36.5 195t112.5 63q75 0 109.5 -60t34.5 -192q0 -129 -36.5 -190.5t-113.5 -61.5q-75 0 -109 59t-34 187zM381 967q0 -109 23 -157t77 -48q57 0 82 50t25 163q0 110 -23.5 158.5t-77.5 48.5q-55 0 -80.5 -51t-25.5 -164zM471 -51l756 1431h207l-754 -1431h-209z M543 -8h110l709 1345h-109zM1116 346q0 189 88 290t252 101q83 0 153 -35t111 -98q58 -88 58 -237q0 -190 -88 -292t-252 -102q-152 0 -237 98t-85 275zM1159 346q0 -157 73 -243.5t206 -86.5q145 0 220 89.5t75 261.5q0 158 -72.5 243.5t-206.5 85.5q-145 0 -220 -89 t-75 -261zM1300 346q0 136 36 199t114 63q73 0 108 -60t35 -186q0 -132 -36 -195t-111 -63t-110.5 59t-35.5 183zM1343 348q0 -107 24.5 -155t78.5 -48q55 0 79.5 51t24.5 164q0 106 -24 155.5t-76 49.5q-57 0 -82 -51.5t-25 -165.5z" />
<glyph unicode="&#x26;" horiz-adv-x="1312" d="M63 383q0 125 76 229q35 49 79.5 84.5t133.5 85.5q-64 85 -88 143.5t-24 125.5q0 143 106 237t268 94q159 0 262 -94.5t103 -240.5q0 -105 -57 -193q-42 -68 -164 -147l139 -170q25 70 37 141h264q-8 -95 -41 -187.5t-84 -156.5l287 -334h-371l-102 123 q-97 -85 -181 -118.5t-198 -33.5q-192 0 -318.5 117t-126.5 295zM106 383q0 -160 114.5 -264.5t287.5 -104.5q224 0 383 172l119 -143h258l-248 289q52 66 81 134t48 169h-178q-18 -102 -66 -174l-213 258q126 64 185 144t59 184q0 127 -91 209.5t-231 82.5 q-145 0 -238 -81.5t-93 -208.5q0 -65 31 -127t108 -154q-316 -136 -316 -385zM313 389q0 74 50.5 132.5t162.5 113.5l254 -307q-63 -75 -123 -108.5t-129 -33.5q-89 0 -152 59t-63 144zM358 389q0 -66 50 -113t120 -47q53 0 96.5 22t98.5 77l-209 252q-88 -51 -122 -92.5 t-34 -98.5zM467 1063q0 57 43 97t104 40q65 0 107.5 -42.5t42.5 -106.5q0 -61 -38 -108.5t-132 -104.5q-67 73 -97 125.5t-30 99.5zM512 1063q0 -34 19 -70t71 -100q64 43 90.5 78.5t26.5 79.5q0 47 -29.5 77.5t-75.5 30.5q-43 0 -72.5 -28t-29.5 -68z" />
<glyph unicode="'" horiz-adv-x="471" d="M31 1366h411l-65 -571h-281zM80 1323l55 -485h203l55 485h-313z" />
<glyph unicode="(" horiz-adv-x="567" d="M76 670q0 281 92 547q29 82 76 176t86 149h260q-77 -154 -103.5 -220t-52.5 -167q-61 -230 -61 -483q0 -412 196 -801q5 -6 25 -47h-266q-84 154 -108.5 206.5t-55.5 139.5q-88 254 -88 500zM119 670q0 -207 54.5 -393.5t180.5 -409.5h170q-196 380 -196 807 q0 230 46 427.5t146 397.5h-168q-30 -43 -74 -134.5t-69 -162.5q-90 -257 -90 -532z" />
<glyph unicode=")" horiz-adv-x="569" d="M-35 1542h262q256 -407 256 -850q0 -277 -94 -545q-22 -67 -71 -165.5t-87 -157.5h-260q13 34 21 45l45 92q72 148 111.5 339.5t39.5 397.5q0 436 -223 844zM37 1499q94 -180 144 -387.5t50 -413.5q0 -240 -44.5 -433.5t-147.5 -397.5h168q8 12 69 131 q77 145 119.5 327.5t42.5 366.5q0 207 -62.5 422t-172.5 385h-166z" />
<glyph unicode="*" horiz-adv-x="780" d="M27 1059l61 180l207 -78l-4 223h194l-4 -223l205 78l68 -180l-215 -70l133 -178l-152 -113l-133 187l-129 -187l-156 113l134 178zM82 1085l225 -75l-143 -189l84 -63l139 200l143 -200l82 61l-141 191l227 75l-36 99l-226 -86l6 243h-106l4 -243l-225 86z" />
<glyph unicode="+" d="M-12 645v213h411v404h226v-404h413v-213h-413v-405h-226v405h-411zM31 688h411v-405h140v405h413v127h-413v404h-140v-404h-411v-127z" />
<glyph unicode="," horiz-adv-x="604" d="M143 0v322h324v-244q0 -95 -21.5 -159.5t-68.5 -111.5q-92 -92 -234 -116v164q111 34 129 145h-129zM186 43h131q3 -162 -131 -217v-82q127 41 182.5 119t55.5 215v201h-238v-236z" />
<glyph unicode="-" horiz-adv-x="600" d="M0 389v275h600v-275h-600zM43 432h514v189h-514v-189z" />
<glyph unicode="." horiz-adv-x="604" d="M135 0v330h336v-330h-336zM178 43h250v244h-250v-244z" />
<glyph unicode="/" horiz-adv-x="710" d="M-119 -197l654 1758h280l-653 -1758h-281zM-57 -154h188l621 1672h-187z" />
<glyph unicode="0" horiz-adv-x="1208" d="M88 662q0 331 135.5 510.5t386.5 179.5q239 0 373.5 -182.5t134.5 -507.5q0 -324 -134.5 -504.5t-375.5 -180.5q-249 0 -384.5 179.5t-135.5 505.5zM131 662q0 -308 124 -475t353 -167q223 0 345 168t122 474q0 308 -122 477.5t-345 169.5q-230 0 -353.5 -167 t-123.5 -480zM342 651q0 261 61.5 374.5t202.5 113.5q134 0 196 -114.5t62 -362.5q0 -243 -63 -358.5t-195 -115.5q-78 0 -137.5 42.5t-85.5 117.5q-41 109 -41 303zM385 649q0 -218 52.5 -319t166.5 -101q110 0 162.5 105.5t52.5 329.5q0 226 -50.5 329t-162.5 103 q-120 0 -170.5 -102t-50.5 -345z" />
<glyph unicode="1" horiz-adv-x="1208" d="M207 848v233q184 -1 273.5 60t109.5 202h254v-1343h-320v848h-317zM250 891h317v-848h234v1257h-174q-47 -254 -377 -260v-149z" />
<glyph unicode="2" horiz-adv-x="1208" d="M70 0q3 204 92 333.5t327 274.5q134 81 178 111.5t70 58.5q51 57 51 137q0 75 -52 122.5t-136 47.5q-60 0 -106.5 -27t-69.5 -75q-28 -56 -33 -182h-291q2 142 24 226.5t77 152.5q139 174 411 174q217 0 349.5 -115t132.5 -303q0 -198 -158 -338q-39 -35 -84.5 -65 t-175.5 -109q-110 -68 -142 -92.5t-61 -61.5q72 4 131 4h496v-274h-1030zM115 43h940v188h-643q20 64 74.5 111t234.5 158q97 59 142.5 93.5t84.5 76.5q101 110 101 264q0 172 -119.5 274.5t-319.5 102.5q-217 0 -342 -121t-125 -330q0 -8 2 -16h203q8 82 21.5 126t44.5 79 q70 79 186 79q101 0 166 -59.5t65 -153.5q0 -100 -73 -176q-24 -24 -67 -53t-179 -113q-217 -132 -303 -247.5t-94 -282.5z" />
<glyph unicode="3" horiz-adv-x="1208" d="M76 440v47h291v-12q0 -237 221 -237q99 0 157 48.5t58 131.5q0 102 -86 147q-30 17 -65.5 23t-100.5 6q-35 0 -76 -2v219h35q82 0 122 6.5t75 24.5q67 36 67 116q0 66 -49 106t-131 40q-99 0 -147.5 -55t-49.5 -170h-291q8 232 133.5 353.5t358.5 121.5q211 0 339 -103.5 t128 -273.5q0 -174 -143 -256q94 -41 143 -119t49 -184q0 -200 -151 -326q-140 -117 -369 -117q-273 0 -410 158q-108 127 -108 307zM119 444q0 -131 63 -235q120 -191 412 -191q228 0 360 123q117 114 117 277q0 109 -53 178.5t-174 120.5q97 54 137.5 113t40.5 147 q0 152 -116 244t-308 92q-221 0 -336 -121q-50 -53 -74 -112.5t-34 -157.5h200q7 60 22 94t46 65q64 64 172 64q100 0 161.5 -52t61.5 -135q0 -65 -36 -109t-103 -63q-37 -10 -64.5 -13t-95.5 -3v-135h62q125 0 195.5 -58t70.5 -161q0 -100 -71 -160.5t-187 -60.5 q-123 0 -187.5 61t-76.5 188h-205z" />
<glyph unicode="4" horiz-adv-x="1208" d="M74 301v279l590 766h286v-783h174v-262h-174v-301h-301v301h-575zM117 344h575v-301h215v301h174v176h-174v783h-221l-569 -736v-223zM285 520l413 549l-2 -549h-411zM369 561h284v377z" />
<glyph unicode="5" horiz-adv-x="1208" d="M70 424h297q6 -91 63 -142t152 -51q98 0 160.5 63.5t62.5 164.5q0 104 -60.5 164.5t-164.5 60.5q-72 0 -120 -24.5t-83 -81.5l-271 4l134 751h798v-264h-567l-41 -215q68 34 117 46.5t117 12.5q204 0 325 -120.5t121 -323.5q0 -220 -146 -354.5t-384 -134.5t-372 116 t-138 328zM115 381q9 -164 135 -261t330 -97q218 0 351.5 122.5t133.5 323.5q0 186 -108 293.5t-293 107.5q-82 0 -142.5 -18.5t-148.5 -69.5l61 330h559v178h-717l-118 -667l192 -5q77 109 228 109q123 0 196.5 -73t73.5 -195q0 -119 -75 -195t-193 -76q-111 0 -183 66 q-29 25 -44 51.5t-27 75.5h-211z" />
<glyph unicode="6" horiz-adv-x="1208" d="M94 643q0 338 144.5 524.5t406.5 186.5q199 0 315 -98.5t142 -290.5h-289q-17 76 -58.5 111.5t-113.5 35.5q-211 0 -246 -309q108 108 283 108q195 0 319.5 -126t124.5 -324q0 -212 -140.5 -348t-358.5 -136q-251 0 -390 175t-139 491zM137 641q0 -296 127 -459.5 t357 -163.5q201 0 329.5 123.5t128.5 317.5q0 181 -112 295t-287 114q-102 0 -175.5 -34.5t-156.5 -122.5q6 444 293 444q154 0 207 -147h203q-40 155 -138.5 229t-267.5 74q-244 0 -376 -174.5t-132 -495.5zM369 453q0 117 70.5 190.5t181.5 73.5q109 0 179 -74.5 t70 -189.5q0 -117 -71 -192t-181 -75q-107 0 -178 76t-71 191zM414 453q0 -97 58.5 -160.5t148.5 -63.5q91 0 148.5 63t57.5 161q0 97 -57.5 159t-146.5 62q-94 0 -151.5 -61.5t-57.5 -159.5z" />
<glyph unicode="7" horiz-adv-x="1208" d="M119 1049v284h962v-246q-203 -206 -325 -501.5t-123 -585.5h-328q1 253 129.5 556.5t313.5 494.5q-90 -2 -152 -2h-477zM162 1092h672l-50 -58q-185 -210 -298 -467.5t-138 -523.5h244q8 280 130.5 571.5t315.5 489.5v186h-876v-198z" />
<glyph unicode="8" horiz-adv-x="1208" d="M76 397q0 127 69 217q24 30 53.5 52.5t84.5 50.5q-82 51 -118 114t-36 154q0 164 132 267.5t343 103.5q210 0 341.5 -101.5t131.5 -263.5q0 -92 -34.5 -153t-120.5 -119q111 -54 159.5 -127t48.5 -186q0 -195 -142.5 -310.5t-383.5 -115.5q-244 0 -386 112.5t-142 304.5z M119 395q0 -174 130 -274.5t355 -100.5q222 0 352.5 104.5t130.5 281.5q0 110 -52.5 177.5t-186.5 129.5q107 69 146.5 127t39.5 149q0 145 -119 234.5t-311 89.5t-312 -91t-120 -237q0 -89 43.5 -152t144.5 -120q-66 -31 -101.5 -53t-61.5 -50q-78 -84 -78 -215zM332 412 q0 104 74.5 167.5t197.5 63.5q120 0 195 -64t75 -167q0 -106 -74.5 -171t-195.5 -65t-196.5 65.5t-75.5 170.5zM362 967q0 88 67 141t177 53q107 0 173.5 -53t66.5 -139q0 -89 -66.5 -144t-173.5 -55q-108 0 -176 55t-68 142zM375 412q0 -88 63 -141.5t164 -53.5 q104 0 165.5 52.5t61.5 140.5q0 86 -62.5 138t-164.5 52q-103 0 -165 -51t-62 -137zM406 967q0 -69 54.5 -111.5t143.5 -42.5q90 0 143.5 42.5t53.5 113.5q0 69 -53 110t-144 41t-144.5 -41.5t-53.5 -111.5z" />
<glyph unicode="9" horiz-adv-x="1208" d="M82 870q0 212 141 348t361 136q263 0 407 -197q62 -85 90.5 -195.5t28.5 -265.5q0 -274 -104 -465q-136 -254 -437 -254q-124 0 -223.5 41.5t-159.5 118.5q-70 87 -84 230h287q15 -78 58.5 -115t121.5 -37q98 0 159.5 80.5t74.5 228.5q-67 -58 -130.5 -82t-150.5 -24 q-192 0 -316 127.5t-124 324.5zM125 870q0 -180 111.5 -294.5t285.5 -114.5q94 0 172 37t154 118v-41q0 -61 -14 -129.5t-37 -117.5q-74 -154 -228 -154q-165 0 -217 150h-200q14 -73 39.5 -120t76.5 -89q118 -95 301 -95q289 0 412 256q86 177 86 422q0 296 -125 455.5 t-358 159.5q-201 0 -330 -124t-129 -319zM334 877q0 117 70 190.5t180 73.5q107 0 177 -75.5t70 -191.5q0 -113 -70 -185.5t-179 -72.5t-178.5 73.5t-69.5 187.5zM379 879q0 -97 56.5 -158.5t146.5 -61.5q91 0 148.5 61.5t57.5 156.5q0 97 -57.5 160t-146.5 63 q-91 0 -148 -61.5t-57 -159.5z" />
<glyph unicode=":" horiz-adv-x="567" d="M123 0v324h321v-324h-321zM123 666v321h321v-321h-321zM166 43h235v238h-235v-238zM166 707h235v237h-235v-237z" />
<glyph unicode=";" horiz-adv-x="567" d="M125 0v322h324v-236q0 -184 -74.5 -274.5t-249.5 -118.5v164q118 34 129 143h-129zM125 664v321h324v-321h-324zM168 43h131q0 -88 -30 -138t-101 -79v-82q127 28 182.5 107.5t55.5 234.5v193h-238v-236zM168 707h238v235h-238v-235z" />
<glyph unicode="&#x3c;" d="M47 547v291l928 479v-363l-516 -264l514 -264l2 -360zM90 573l842 -436l-2 262l-568 291l570 291v264l-842 -434v-238z" />
<glyph unicode="=" d="M-14 494v206h1052v-206h-1052zM-14 801v209h1052v-209h-1052zM29 537h966v120h-966v-120zM29 844h966v123h-966v-123z" />
<glyph unicode="&#x3e;" d="M47 66v362l516 264l-514 264l-2 361l928 -479v-293zM90 137l842 434v240l-842 434l2 -262l567 -291l-569 -291v-264z" />
<glyph unicode="?" horiz-adv-x="1064" d="M53 899q4 110 24.5 180.5t65.5 132.5q135 183 400 183q204 0 331 -111t127 -289q0 -118 -53 -195.5t-209 -187.5q-42 -31 -59.5 -71.5t-17.5 -108.5q0 -12 -3 -33h-284l2 33q5 88 11.5 132t28 91t55.5 81.5t101 88.5q65 52 86 85t21 81q0 63 -38 100t-103 37 q-104 0 -146 -73q-17 -29 -23.5 -60t-9.5 -96h-307zM98 942h221q18 229 218 229q83 0 134.5 -49t51.5 -129q0 -58 -24.5 -98t-98.5 -100q-83 -67 -117.5 -109.5t-47.5 -93t-15 -150.5h196q1 84 30.5 131.5t111.5 104.5q111 75 155.5 147.5t44.5 169.5q0 160 -114.5 258.5 t-300.5 98.5q-214 0 -334 -129q-52 -54 -76 -115t-35 -166zM358 0v317h316v-317h-316zM401 43h228v231h-228v-231z" />
<glyph unicode="@" horiz-adv-x="1380" d="M16 668q0 140 55.5 267t150.5 218.5t226 145t277 53.5q130 0 248.5 -45t204 -121.5t136 -182t50.5 -221.5q0 -77 -22 -147t-65.5 -130t-105.5 -106q-60 -46 -131 -73t-131 -27q-98 0 -153 74q-57 -41 -105 -59.5t-100 -18.5q-116 0 -190 78.5t-74 201.5q0 85 35.5 169.5 t92 148t131.5 103.5t150 40q113 0 191 -78l16 46h205q-15 -46 -80 -237.5t-100 -295.5q-6 -15 -6 -29q0 -10 9 -17t23 -7q34 0 80 26.5t84 67.5q103 112 103 262q0 184 -145 314.5t-351 130.5q-155 0 -283.5 -72.5t-202 -198.5t-73.5 -278q0 -151 74 -277.5t202.5 -199 t282.5 -72.5q143 0 268.5 69t200.5 189h162q-38 -77 -54.5 -102t-56.5 -66q-104 -109 -240 -168t-284 -59q-192 0 -354.5 91.5t-256.5 249t-94 343.5zM59 668q0 -131 52 -250t140.5 -204.5t211 -136t258.5 -50.5q172 0 321.5 81.5t241.5 227.5h-65q-78 -117 -213 -187.5 t-281 -70.5q-124 0 -235.5 46t-192 125t-127.5 189t-47 232t47 232t127 189t191.5 125t236.5 46q109 0 209 -38.5t172 -104t115 -156t43 -189.5q0 -80 -30 -155.5t-85 -135.5q-44 -49 -97.5 -78.5t-97.5 -29.5q-31 0 -53 19.5t-22 47.5q0 19 20 80l148 439h-113l-37 -95 q-37 56 -43 62q-24 30 -66.5 47.5t-89.5 17.5q-67 0 -134.5 -36.5t-118.5 -94.5t-83 -134.5t-32 -152.5q0 -104 62 -170.5t159 -66.5q54 0 97 19.5t124 82.5l12 -26q10 -23 27.5 -39t42 -24.5t53.5 -8.5q54 0 119.5 24.5t120.5 65.5q85 64 129.5 154t44.5 196 q0 107 -47 204.5t-127 168.5t-190 112.5t-232 41.5q-91 0 -178 -23t-160 -63.5t-134 -99.5t-104 -129.5t-66.5 -154t-23.5 -171.5zM461 520q0 48 13.5 105.5t40 114.5t60.5 104t79.5 76.5t93.5 29.5q24 0 45.5 -10t37 -27.5t24.5 -41t9 -50.5q0 -42 -22 -106l-45 -125 q-39 -111 -92 -164t-123 -53q-54 0 -87.5 40.5t-33.5 106.5zM504 520q0 -47 20.5 -75.5t55.5 -28.5q56 0 98.5 45t77.5 143l45 125q20 56 20 92q0 37 -21 61.5t-52 24.5q-48 0 -95 -41.5t-78.5 -102t-51 -126.5t-19.5 -117z" />
<glyph unicode="A" horiz-adv-x="1314" d="M-25 0l521 1368h325l518 -1368h-344l-106 297h-467l-109 -297h-338zM39 43h244l108 297h529l106 -297h250l-485 1282h-265zM444 506l215 577l207 -577h-422zM506 547h299l-150 422z" />
<glyph unicode="B" horiz-adv-x="1349" d="M127 0v1366h610q198 0 297 -51q86 -44 134.5 -124.5t48.5 -178.5q0 -172 -156 -271q103 -37 160 -123t57 -206q0 -110 -50.5 -200t-142.5 -146q-114 -66 -292 -66h-666zM170 43h623q183 0 286 68q75 51 115.5 128.5t40.5 172.5q0 121 -57 194t-195 129q191 108 191 279 q0 84 -43 155t-117 109q-86 45 -277 45h-567v-1280zM403 227v408h302q138 0 194 -33q92 -53 92 -172q0 -57 -25 -102t-69 -70q-57 -31 -178 -31h-316zM403 786v359h287q128 0 187 -43t59 -137q0 -53 -25 -93.5t-71 -62.5q-47 -23 -150 -23h-287zM449 268h272q121 0 174 38 t53 124q0 102 -82 141q-54 21 -161 21h-256v-324zM449 827h243q104 0 152.5 33t48.5 105q0 73 -47 105t-154 32h-243v-275z" />
<glyph unicode="C" horiz-adv-x="1421" d="M80 684q0 207 85 370t238 253t347 90q249 0 415.5 -144.5t180.5 -371.5h-322q-44 233 -281 233q-153 0 -243 -117t-90 -315t89.5 -314t241.5 -116q128 0 199 73t90 224h326q-19 -270 -184 -426t-433 -156q-296 0 -477.5 197.5t-181.5 519.5zM123 682q0 -305 168.5 -489.5 t447.5 -184.5q300 0 455 205q100 131 113 293h-238q-19 -86 -41.5 -133t-64.5 -86q-84 -78 -222 -78q-171 0 -272.5 128.5t-101.5 344.5q0 217 102.5 346t275.5 129q245 0 316 -233h237q-8 70 -45.5 144t-95.5 130q-159 156 -407 156q-278 0 -452.5 -187t-174.5 -485z" />
<glyph unicode="D" horiz-adv-x="1421" d="M133 0v1366h553q291 0 457 -147q99 -90 152 -224.5t53 -296.5q0 -353 -193 -540q-88 -85 -195 -121.5t-268 -36.5h-559zM176 43h516q156 0 254.5 33t177.5 112q181 175 181 510q0 152 -49.5 278.5t-141.5 209.5q-152 137 -428 137h-510v-1280zM410 238v890h243 q200 0 306 -113t106 -327q0 -249 -129 -369q-45 -44 -108 -62.5t-164 -18.5h-254zM453 281h209q100 0 158.5 19t101.5 65q100 112 100 323q0 195 -94 296t-277 101h-198v-804z" />
<glyph unicode="E" horiz-adv-x="1243" d="M127 0v1366h1034v-276h-708v-252h649v-267h-649v-288h721v-283h-1047zM170 43h960v197h-720v374h649v181h-649v338h708v190h-948v-1280z" />
<glyph unicode="F" horiz-adv-x="1136" d="M125 0v1366h973v-283h-645v-270h561v-268h-561v-545h-328zM168 43h242v545h561v182h-561v356h645v197h-887v-1280z" />
<glyph unicode="G" horiz-adv-x="1456" d="M72 676q0 210 85.5 373.5t240.5 254.5t354 91q276 0 444 -174q69 -70 103.5 -148t43.5 -182h-315q-44 221 -280 221q-163 0 -255 -116.5t-92 -321.5q0 -209 93 -321.5t264 -112.5q126 0 202.5 66.5t96.5 193.5h-297v254h600v-754h-219l-29 127q-76 -82 -170 -120 t-219 -38q-190 0 -338.5 89t-230.5 250t-82 368zM115 676q0 -295 169 -479.5t439 -184.5q131 0 220.5 42.5t191.5 154.5l43 -166h139v668h-514v-168h303q-11 -130 -62 -203q-46 -69 -119.5 -105t-166.5 -36q-191 0 -295.5 125t-104.5 352q0 224 104 351.5t286 127.5 q244 0 315 -221h233q-21 91 -48.5 146t-82.5 110q-158 162 -413 162q-284 0 -460.5 -187.5t-176.5 -488.5z" />
<glyph unicode="H" horiz-adv-x="1421" d="M129 0v1366h328v-502h506v502h327v-1366h-327v571h-506v-571h-328zM172 43h242v571h592v-571h241v1280h-241v-502h-592v502h-242v-1280z" />
<glyph unicode="I" horiz-adv-x="567" d="M119 0v1366h330v-1366h-330zM162 43h244v1280h-244v-1280z" />
<glyph unicode="J" horiz-adv-x="1099" d="M55 467v74h305q0 -148 11 -193q10 -45 46.5 -69.5t92.5 -24.5q75 0 105 43t30 152v917h326v-907q0 -119 -19.5 -193t-66.5 -135q-124 -158 -369 -158q-141 0 -244 52t-157 149q-32 59 -46 125.5t-14 167.5zM98 498q2 -14 2 -27v-51q0 -194 109 -299t309 -105 q221 0 334 144q41 54 58.5 121.5t17.5 177.5v864h-240v-874q0 -127 -41.5 -182.5t-136.5 -55.5q-63 0 -108.5 26.5t-65.5 73.5q-11 29 -15 65t-4 122h-219z" />
<glyph unicode="K" horiz-adv-x="1384" d="M133 0v1366h324l-2 -516l497 516h422l-543 -547l582 -819h-412l-397 586l-147 -146v-440h-324zM176 43h238v414l198 196l414 -610h305l-555 782l496 498h-301l-557 -573v573h-238v-1280z" />
<glyph unicode="L" horiz-adv-x="1136" d="M125 0v1366h328v-1067h649v-299h-977zM168 43h891v213h-649v1067h-242v-1280z" />
<glyph unicode="M" horiz-adv-x="1740" d="M135 0v1366h443l204 -590q54 -155 95 -307q49 167 96 309l194 588h439v-1366h-322v551q0 162 12 344q-50 -184 -82 -277l-208 -618h-265l-215 606q-44 126 -84 293q15 -176 15 -346v-553h-322zM178 43h236v1053q126 -397 155 -475l205 -578h199l198 590q126 369 156 461 v-1051h236v1280h-365q-237 -720 -242 -735l-79 -244q-79 250 -136 418l-194 561h-369v-1280z" />
<glyph unicode="N" horiz-adv-x="1421" d="M125 0v1366h321l531 -817v817h319v-1366h-325l-529 825v-825h-317zM168 43h231v932l596 -932h258v1280h-233v-924l-598 924h-254v-1280z" />
<glyph unicode="O" horiz-adv-x="1490" d="M72 682q0 325 186.5 521t497.5 196q144 0 267 -53t209.5 -147t135.5 -227.5t49 -289.5q0 -320 -185 -517.5t-484 -197.5q-302 0 -489 197.5t-187 517.5zM115 682q0 -302 174.5 -487t458.5 -185q281 0 453.5 185.5t172.5 486.5q0 196 -78 350t-219 239t-321 85 q-292 0 -466.5 -183.5t-174.5 -490.5zM358 684q0 221 106 350t288 129q172 0 275 -130t103 -347q0 -221 -103.5 -352t-276.5 -131q-180 0 -286 130t-106 351zM403 684q0 -202 93.5 -320t253.5 -118q156 0 246.5 119t90.5 323q0 198 -90.5 316t-244.5 118q-162 0 -255.5 -117 t-93.5 -321z" />
<glyph unicode="P" horiz-adv-x="1277" d="M119 0v1366h561q140 0 221.5 -18t147.5 -64q88 -60 134 -155.5t46 -215.5q0 -216 -150 -342q-65 -53 -146 -76.5t-200 -23.5h-289v-471h-325zM162 43h239v471h332q113 0 187.5 21.5t132.5 70.5q133 109 133 307q0 109 -42 195.5t-120 140.5q-60 42 -135 58t-209 16h-518 v-1280zM401 700v426h277q140 0 208 -52.5t68 -160.5q0 -213 -260 -213h-293zM444 743h248q113 0 165 41.5t52 130.5q0 88 -55 128t-178 40h-232v-340z" />
<glyph unicode="Q" horiz-adv-x="1490" d="M72 680q0 155 50.5 288.5t139 227.5t214.5 147.5t272 53.5q193 0 345.5 -90t237 -252t84.5 -367q0 -152 -45 -283t-125 -215l172 -155l-162 -174l-200 180q-79 -43 -152.5 -60.5t-167.5 -17.5q-195 0 -346 90t-234 253t-83 374zM117 682q0 -302 170.5 -489t447.5 -187 q189 0 326 88l190 -172l105 111l-172 155q188 176 188 500q0 193 -79 345.5t-221 237.5t-322 85q-279 0 -456 -188.5t-177 -485.5zM356 682q0 220 105 349.5t282 129.5q178 0 282.5 -128.5t104.5 -346.5q0 -240 -114 -342l-144 129l-102 -111l137 -122q-79 -43 -164 -43 q-175 0 -281 132.5t-106 352.5zM401 682q0 -202 94.5 -322t252.5 -120q41 0 83 12l-122 108l161 172l144 -129q73 95 73 281q0 201 -92 317.5t-252 116.5q-157 0 -249.5 -117.5t-92.5 -318.5z" />
<glyph unicode="R" horiz-adv-x="1384" d="M141 0v1366h660q105 0 174.5 -14.5t128.5 -48.5q89 -52 135.5 -138t46.5 -194t-46 -192.5t-132 -133.5q39 -22 64 -45.5t44 -54t31 -79t20 -107.5t15 -152q7 -92 21 -129t53 -78h-352q-18 30 -26.5 70.5t-14.5 126.5q-5 74 -11.5 122t-19.5 86.5t-29 59t-44.5 34 t-62.5 17.5t-87 4h-242v-520h-326zM184 43h240v520h285q168 0 225 -74q35 -44 49 -99.5t23 -188.5q9 -110 24 -158h242q-16 35 -24 83t-21 204q-12 132 -50 195t-137 116q113 77 158 151t45 179q0 96 -41.5 172.5t-118.5 122.5q-53 31 -117 44t-165 13h-617v-1280zM424 727 v414h313q271 0 271 -203q0 -112 -80 -170q-61 -41 -203 -41h-301zM467 768h258q129 0 184.5 39t55.5 131q0 85 -54 123.5t-174 38.5h-270v-332z" />
<glyph unicode="S" horiz-adv-x="1243" d="M39 481h326q3 -69 14 -105t39 -65q77 -80 229 -80q107 0 168.5 42.5t61.5 117.5q0 26 -8 43.5t-26.5 34t-62 33.5t-100.5 34.5t-156 45.5q-158 44 -215.5 67.5t-107.5 65.5q-113 93 -113 262q0 189 145.5 303.5t384.5 114.5q150 0 265.5 -48t183.5 -137q42 -57 60.5 -120 t21.5 -158h-313q-6 103 -63 152t-171 49q-92 0 -144 -35.5t-52 -98.5q0 -58 45 -81q30 -17 70 -29t192 -49q230 -58 317 -115q170 -111 170 -309q0 -205 -152.5 -326t-412.5 -121q-170 0 -299.5 52t-204.5 149q-49 64 -70.5 136.5t-21.5 174.5zM84 438q12 -204 154.5 -315 t394.5 -111q243 0 382.5 108t139.5 296q0 205 -199 301q-47 23 -107.5 41.5t-238.5 62.5q-152 37 -201 71.5t-49 106.5q0 80 65 127.5t177 47.5q235 0 272 -199h228q-10 178 -138 277.5t-346 99.5q-222 0 -354.5 -102t-132.5 -273q0 -63 17 -112.5t43.5 -82.5t72.5 -60 t90.5 -43.5t110.5 -35.5l194 -57q95 -28 126 -39.5t57 -28.5q78 -47 78 -127q0 -92 -73.5 -146.5t-199.5 -54.5q-149 0 -237 70q-42 34 -61 73t-25 105h-240z" />
<glyph unicode="T" horiz-adv-x="1171" d="M12 1075v291h1147v-291h-409v-1075h-328v1075h-410zM55 1118h410v-1075h242v1075h409v205h-1061v-205z" />
<glyph unicode="U" horiz-adv-x="1421" d="M123 571v795h328v-813q0 -83 9 -129.5t32 -79.5q61 -94 225 -94q141 0 197.5 67.5t56.5 235.5v813h327v-799q0 -154 -23.5 -243.5t-84.5 -165.5q-145 -185 -477 -185q-354 0 -502 209q-48 70 -68 158t-20 231zM166 571q0 -148 21 -233t75 -152q70 -89 179.5 -130.5 t271.5 -41.5q169 0 281.5 46.5t179.5 144.5q46 67 63.5 146.5t17.5 215.5v756h-241v-770q0 -186 -68 -265t-227 -79q-189 0 -264 110q-26 40 -36.5 92t-10.5 142v770h-242v-752z" />
<glyph unicode="V" horiz-adv-x="1208" d="M-25 1366h342l179 -551q63 -193 108 -366q92 302 113 366l176 551h344l-459 -1366h-356zM35 1323l420 -1280h293l428 1280h-250q-216 -673 -224 -698q-26 -89 -98 -308q-140 459 -149 486l-168 520h-252z" />
<glyph unicode="W" horiz-adv-x="1810" d="M-2 1366h334l200 -862l209 862h328l205 -860l207 860h329l-372 -1366h-328l-209 897l-203 -897h-333zM55 1323l344 -1280h265l237 1034l244 -1034h260l348 1280h-237q-38 -154 -78.5 -325t-46.5 -193l-117 -469l-240 987h-258l-244 -991l-108 452q-74 306 -127 539h-242z " />
<glyph unicode="X" horiz-adv-x="1277" d="M-49 0l483 711l-448 655h393l178 -281q8 -17 26 -47.5t21 -36.5l33 -51q25 41 29 45q33 57 71.5 118.5t87.5 137t74 115.5h387l-455 -649l488 -717h-397q-10 15 -108 168.5t-148 234.5l-31 52q-43 -69 -91 -143.5t-110 -169.5t-92 -142h-391zM33 43h284l207 315 q32 55 111 170q11 -16 23.5 -35t21 -31.5t15 -23.5t7.5 -12q36 -56 77 -120.5t90 -141.5l77 -121h293l-459 674l424 606h-280l-166 -258q-30 -46 -60 -90q-4 -11 -63 -101q-36 55 -66 107q-31 51 -67 108t-80 126.5t-68 107.5h-286l419 -612z" />
<glyph unicode="Y" horiz-adv-x="1277" d="M-33 1366h375q10 -17 110 -190t150 -265l41 -71q33 63 74.5 136.5t72 125.5t80 136.5t74.5 127.5h369l-510 -840v-526h-326v530zM43 1323l477 -782v-498h240v494l475 786h-264q-28 -48 -80 -135.5t-94 -159.5t-78 -137l-76 -127q-76 121 -76 127q-36 65 -78.5 137.5 t-93.5 159t-80 135.5h-272z" />
<glyph unicode="Z" horiz-adv-x="1243" d="M39 0v264l706 811l-663 -2v293h1092v-272l-601 -691l-69 -75q-2 -3 -14.5 -16t-20.5 -23l727 4v-293h-1157zM82 43h1071v207h-772l749 860v213h-1005v-207h709q-18 -22 -121 -141l-631 -725v-207z" />
<glyph unicode="[" horiz-adv-x="638" d="M129 -166v1698h520v-244h-239v-1212h239v-242h-520zM172 -123h434v156h-239v1298h239v158h-434v-1612z" />
<glyph unicode="\" horiz-adv-x="710" d="M-104 1561h278l655 -1758h-282zM-43 1518l621 -1672h188l-623 1672h-186z" />
<glyph unicode="]" horiz-adv-x="638" d="M-8 78h237v1210h-237v244h520v-1698h-520v244zM35 35v-158h434v1612h-434v-158h237v-1296h-237z" />
<glyph unicode="^" d="M-6 690l323 684h390l323 -684h-334l-184 400l-184 -400h-334zM63 733h236l213 463l213 -463h236l-283 598h-332z" />
<glyph unicode="_" d="M-20 -68h1064v-229h-1064v229zM23 -111v-143h978v143h-978z" />
<glyph unicode="`" d="M236 1384h354l198 -305h-229zM342 1341l236 -219h133l-146 219h-223z" />
<glyph unicode="a" horiz-adv-x="1101" d="M45 283q0 95 46 164t134 106q74 34 256 53q61 8 94 12t63.5 11t42.5 12t21.5 15.5t11 21t1.5 29.5q0 55 -40.5 81.5t-125.5 26.5q-88 0 -125 -32t-49 -117h-289q6 97 34 158t91 110q116 94 352 94q238 0 357 -96q54 -44 72 -97t18 -163q-6 -329 -6 -389q0 -118 8 -168.5 t37 -114.5h-312q-14 43 -16 78q-88 -59 -158.5 -82t-163.5 -23q-164 0 -259 83.5t-95 226.5zM88 283q0 -126 82.5 -196.5t230.5 -70.5q99 0 176.5 29.5t180.5 106.5q0 -74 12 -109h213q-22 81 -22 240q0 13 3 102t3 231v54q0 100 -15 145t-59 82q-108 88 -330 88 q-395 0 -430 -276h203q17 75 68.5 111t144.5 36q101 0 155 -38.5t54 -110.5q0 -30 -6 -48.5t-21 -33.5t-48 -25t-77.5 -18t-120.5 -17q-190 -24 -264 -59q-133 -66 -133 -223zM309 293q0 90 74 129q55 27 152 39q98 13 219 45v-127q0 -54 -13 -88t-45 -66q-83 -86 -211 -86 q-83 0 -129.5 41t-46.5 113zM354 293q0 -54 34 -82.5t97 -28.5q115 0 183 74q25 26 34 52t9 71v74l-72 -19q-9 -2 -23 -3.5t-30 -4.5l-45 -8q-113 -21 -150 -44.5t-37 -80.5z" />
<glyph unicode="b" horiz-adv-x="1171" d="M96 0v1366h301v-448q67 56 133.5 81t149.5 25q194 0 314 -142t120 -372q0 -240 -125 -388.5t-327 -148.5q-175 0 -277 111v-84h-289zM139 43h205v135q73 -88 146.5 -125t171.5 -37q184 0 296.5 135.5t112.5 358.5q0 216 -108.5 344.5t-290.5 128.5q-93 0 -166 -35.5 t-152 -120.5v496h-215v-1280zM344 504q0 148 69 233.5t189 85.5q112 0 181 -87t69 -228q0 -148 -69 -237t-183 -89q-118 0 -187 87t-69 235zM389 506q0 -131 56.5 -206t156.5 -75q94 0 150.5 77t56.5 206q0 123 -56.5 197.5t-150.5 74.5q-100 0 -156.5 -72.5t-56.5 -201.5z " />
<glyph unicode="c" horiz-adv-x="1101" d="M63 494q0 242 140 388t372 146q207 0 333 -106t141 -295h-295q-27 168 -176 168q-100 0 -155.5 -78t-55.5 -217q0 -135 54 -210t152 -75q162 0 189 195h293q-25 -207 -151 -321t-333 -114q-229 0 -368.5 143t-139.5 376zM106 494q0 -215 127 -345.5t338 -130.5 q175 0 292 94t143 255h-207q-47 -195 -226 -195q-118 0 -183.5 86t-65.5 240q0 158 68 248t188 90q79 0 135 -44t76 -122h208q-15 140 -133 227.5t-291 87.5q-214 0 -341.5 -133.5t-127.5 -357.5z" />
<glyph unicode="d" horiz-adv-x="1171" d="M59 504q0 239 123 380.5t330 141.5q160 0 262 -94v434h301v-1366h-289v76q-103 -103 -270 -103q-207 0 -332 145t-125 386zM102 506q0 -225 112.5 -357.5t303.5 -132.5q122 0 213 64q16 10 26.5 19t69.5 65v-121h205v1280h-213v-483q-82 84 -146 114.5t-157 30.5 q-193 0 -303.5 -128t-110.5 -351zM319 504q0 150 68 234.5t188 84.5q116 0 184 -86.5t68 -232.5q0 -151 -67.5 -236.5t-186.5 -85.5q-118 0 -186 86.5t-68 235.5zM362 502q0 -130 56 -204.5t153 -74.5q100 0 155.5 73.5t55.5 205.5q0 131 -55.5 204.5t-153.5 73.5 q-101 0 -156 -72.5t-55 -205.5z" />
<glyph unicode="e" horiz-adv-x="1136" d="M61 483q0 236 146 387.5t375 151.5q230 0 367.5 -150t137.5 -401q0 -34 -2 -61h-712q7 -98 64.5 -152.5t152.5 -54.5q61 0 104 24t78 78h303q-54 -163 -180 -249.5t-311 -86.5q-237 0 -380 140.5t-143 373.5zM104 483q0 -215 131 -343t351 -128q151 0 260.5 63.5 t167.5 186.5h-217q-76 -100 -207 -100q-124 0 -191 74t-73 217h716q1 247 -121.5 386.5t-340.5 139.5q-209 0 -342.5 -139t-133.5 -357zM326 586q17 123 82 186.5t174 63.5q107 0 170.5 -65t74.5 -185h-501zM375 627h403q-15 80 -66.5 123t-133.5 43q-78 0 -131 -44 t-72 -122z" />
<glyph unicode="f" horiz-adv-x="675" d="M8 780v217h156v35q0 98 16 152t56 96q89 92 280 92q45 0 154 -8v-229q-47 4 -97 4q-71 0 -89.5 -14t-18.5 -66v-62h188v-217h-186v-780h-303v780h-156zM51 823h156v-780h217v780h186v131h-188v105q0 70 29.5 96.5t109.5 26.5q41 0 66 -2v145q-66 4 -97 4 q-107 0 -173.5 -22.5t-104.5 -73.5q-25 -34 -35 -78t-10 -123v-78h-156v-131z" />
<glyph unicode="g" horiz-adv-x="1171" d="M74 520q0 226 121 366t317 140q86 0 148 -25t122 -83v83h289v-862q0 -118 -14.5 -186.5t-52.5 -126.5q-120 -184 -426 -184q-223 0 -340 84t-134 256h302q12 -68 52.5 -96.5t125.5 -28.5q149 0 182 110q12 42 12 160q-68 -54 -132 -76t-146 -22q-193 0 -309.5 134 t-116.5 357zM117 520q0 -206 104 -327t281 -121q93 0 161 30t160 111l-2 -127q-3 -147 -57.5 -209.5t-181.5 -62.5q-173 0 -211 125h-217q19 -123 128 -188.5t296 -65.5q284 0 391 165q33 53 46 117t13 172v819h-205v-137q-78 89 -147.5 125.5t-163.5 36.5q-179 0 -287 -127 t-108 -336zM330 530q0 137 67.5 216t184.5 79q112 0 177.5 -81t65.5 -218q0 -140 -66.5 -222.5t-180.5 -82.5q-115 0 -181.5 83t-66.5 226zM373 528q0 -124 54 -195t148 -71q97 0 152 70.5t55 193.5q0 119 -53.5 187.5t-146.5 68.5q-98 0 -153.5 -67t-55.5 -187z" />
<glyph unicode="h" horiz-adv-x="1136" d="M100 0v1366h297v-457q124 115 287 115q101 0 180.5 -37.5t122.5 -105.5q53 -80 53 -250v-631h-301v586q0 98 -26 133q-39 51 -125 51q-55 0 -99 -25t-67 -69q-15 -29 -20 -67t-5 -120v-489h-297zM143 43h211v446q0 94 7 138t28 80q29 51 81.5 78.5t117.5 27.5 q119 0 168 -80q26 -43 26 -147v-543h215v588q0 84 -10.5 136t-36.5 91q-37 60 -106 92.5t-158 32.5q-97 0 -169 -36t-161 -130v506h-213v-1280z" />
<glyph unicode="i" horiz-adv-x="497" d="M98 0v999h301v-999h-301zM98 1108v262h301v-262h-301zM141 43h215v913h-215v-913zM141 1149h215v178h-215v-178z" />
<glyph unicode="j" horiz-adv-x="532" d="M-41 -94q29 -2 78 -2q38 0 56 10.5t22 36.5q6 29 6 149v899h303v-981q0 -126 -18 -187.5t-68 -104.5q-83 -74 -252 -74q-36 0 -127 6v248zM2 -137v-166q33 -4 86 -4q155 0 221 63q41 37 56.5 92.5t15.5 169.5v940h-217v-858q0 -102 -2.5 -132t-11.5 -54q-23 -53 -117 -53 q-19 0 -31 2zM121 1104v266h303v-266h-303zM164 1147h217v180h-217v-180z" />
<glyph unicode="k" horiz-adv-x="1101" d="M121 0v1366h297v-688l311 321h367l-383 -376l413 -623h-364l-258 418l-86 -80v-338h-297zM164 43h211v313l137 127l274 -440h261l-392 584l336 329h-241l-375 -376v743h-211v-1280z" />
<glyph unicode="l" horiz-adv-x="497" d="M98 0v1366h301v-1366h-301zM141 43h215v1280h-215v-1280z" />
<glyph unicode="m" horiz-adv-x="1703" d="M98 0v999h289v-88q73 64 137 89.5t152 25.5q92 0 157.5 -33.5t116.5 -105.5q74 76 146 107.5t168 31.5q162 0 253 -95t91 -265v-666h-303v594q0 85 -19 121q-32 59 -117 59q-50 0 -89.5 -23t-59.5 -63q-19 -42 -19 -147v-541h-301v604q0 93 -29 131.5t-98 38.5 q-51 0 -91 -24.5t-62 -67.5q-21 -44 -21 -141v-541h-301zM141 43h215v498q0 120 33 176q29 46 77.5 72t106.5 26q49 0 88 -20t58 -54q24 -41 24 -137v-561h215v498q0 73 7 111.5t24 68.5q28 44 74.5 69t103.5 25t100.5 -24.5t63.5 -67.5q17 -42 17 -129v-551h217v623 q0 127 -52 200q-38 54 -105.5 85.5t-145.5 31.5q-121 0 -215 -63q-42 -31 -105 -99q-51 86 -113.5 124t-154.5 38q-94 0 -166.5 -35.5t-161.5 -124.5v133h-205v-913z" />
<glyph unicode="n" horiz-adv-x="1136" d="M98 0v999h289v-94q73 66 142 93.5t159 27.5q95 0 174.5 -37.5t122.5 -103.5q31 -47 43 -104.5t12 -155.5v-625h-303v571q0 86 -14 127q-14 34 -50 54t-83 20q-54 0 -99 -25.5t-67 -68.5q-25 -51 -25 -162v-516h-301zM141 43h215v473q0 118 29 180q26 54 81.5 85.5 t123.5 31.5q61 0 107 -26t65 -70q18 -45 18 -146v-528h217v582q0 91 -10.5 142.5t-36.5 92.5q-37 57 -107.5 90t-154.5 33q-98 0 -173 -37.5t-169 -132.5v143h-205v-913z" />
<glyph unicode="o" horiz-adv-x="1171" d="M70 500q0 238 144 383t382 145q226 0 366 -146t140 -382q0 -239 -141 -385t-373 -146q-233 0 -375.5 146.5t-142.5 384.5zM113 498q0 -219 130 -352.5t345 -133.5q214 0 342.5 133.5t128.5 354.5q0 218 -128 351.5t-337 133.5q-220 0 -350.5 -132t-130.5 -355zM330 498 q0 157 68.5 245t191.5 88q117 0 185.5 -88.5t68.5 -240.5q0 -158 -68 -248t-188 -90t-189 89.5t-69 244.5zM373 500q0 -138 57 -215.5t158 -77.5q100 0 155.5 77.5t55.5 215.5q0 135 -56.5 211.5t-154.5 76.5q-101 0 -158 -76t-57 -212z" />
<glyph unicode="p" horiz-adv-x="1171" d="M96 -340v1339h287v-86q66 61 130.5 87t150.5 26q201 0 324.5 -147t123.5 -385q0 -233 -120 -376t-316 -143q-82 0 -157 27t-124 74v-416h-299zM139 -297h213v469q132 -156 320 -156q181 0 289 129.5t108 346.5q0 223 -112 357t-298 134q-95 0 -163.5 -34.5t-151.5 -125.5 v133h-205v-1253zM344 498q0 152 68 236.5t190 84.5q116 0 183 -87t67 -236q0 -148 -67.5 -233t-184.5 -85q-120 0 -188 85.5t-68 234.5zM387 496q0 -130 56.5 -203.5t156.5 -73.5q98 0 153.5 73t55.5 202q0 131 -56 206.5t-153 75.5q-102 0 -157.5 -72.5t-55.5 -207.5z" />
<glyph unicode="q" horiz-adv-x="1171" d="M59 494q0 241 123.5 386.5t327.5 145.5q86 0 151 -25.5t127 -82.5v81h287v-1339h-299v420q-121 -103 -280 -103q-198 0 -317.5 142t-119.5 375zM102 494q0 -219 108 -347.5t292 -128.5q90 0 161 33t156 113v-461h213v1253h-201v-137q-88 94 -156.5 129t-164.5 35 q-186 0 -297 -133t-111 -356zM319 492q0 153 67.5 240t186.5 87q118 0 186 -84.5t68 -232.5q0 -151 -68 -237.5t-188 -86.5q-117 0 -184.5 84t-67.5 230zM362 489q0 -127 55.5 -198.5t153.5 -71.5q101 0 157 74.5t56 206.5q0 129 -56.5 202.5t-154.5 73.5 q-100 0 -155.5 -75.5t-55.5 -211.5z" />
<glyph unicode="r" horiz-adv-x="745" d="M98 0v999h289v-106q63 67 129 97t152 30q7 0 61 -4v-285q-59 10 -92 10q-140 0 -201 -106q-37 -62 -37 -213v-422h-301zM141 43h215v379q0 100 13 158.5t45 99.5q76 102 217 102q9 0 55 -4v197q-10 2 -22 2q-97 0 -166 -42.5t-152 -154.5v176h-205v-913z" />
<glyph unicode="s" horiz-adv-x="1030" d="M49 350h289q7 -89 50 -125.5t138 -36.5q71 0 113.5 27.5t42.5 73.5q0 40 -35 58.5t-166 47.5q-122 28 -181.5 47t-102.5 45q-58 32 -91.5 93t-33.5 133q0 146 116 230.5t314 84.5q123 0 219.5 -33.5t152.5 -95.5q37 -40 53.5 -87.5t20.5 -129.5h-282q-8 75 -44.5 105 t-121.5 30q-63 0 -97 -20.5t-34 -57.5q0 -27 16.5 -42t60 -28.5t142.5 -33.5q205 -42 284 -98q50 -34 78.5 -93.5t28.5 -128.5q0 -157 -124 -249.5t-333 -92.5q-257 0 -379 125q-47 47 -68.5 103.5t-25.5 148.5zM94 307q12 -141 122.5 -217t303.5 -76q189 0 301.5 81 t112.5 218q0 60 -23.5 110t-66.5 79q-74 51 -264 90q-113 23 -164.5 41t-71.5 41t-20 65q0 56 46 87.5t128 31.5q183 0 204 -133h197q-15 129 -116.5 195.5t-282.5 66.5q-178 0 -281.5 -73t-103.5 -199q0 -62 27.5 -112.5t76.5 -78.5q69 -40 270 -86q104 -24 139.5 -35.5 t61.5 -31.5q35 -28 35 -80q0 -64 -56 -104t-147 -40q-195 0 -225 160h-203z" />
<glyph unicode="t" horiz-adv-x="710" d="M8 780v217h160v293h303v-293h195v-217h-195v-432q0 -82 16.5 -101.5t85.5 -19.5q37 0 93 6v-235q-107 -8 -179 -8q-108 0 -173.5 22.5t-100.5 73.5q-28 40 -36.5 91t-8.5 181v422h-160zM51 823h160v-465q0 -131 9 -179.5t40 -82.5q59 -65 223 -65q49 0 140 6v153 q-23 -2 -56 -2q-86 0 -112.5 30.5t-26.5 129.5v475h195v131h-195v293h-217v-293h-160v-131z" />
<glyph unicode="u" horiz-adv-x="1136" d="M100 373v626h303v-550q0 -76 4.5 -108t18.5 -54q37 -56 125 -56q113 0 164 97q24 47 24 176v495h301v-999h-288v90q-78 -65 -144.5 -91t-154.5 -26q-89 0 -162 32t-121 91q-70 87 -70 277zM143 373q0 -101 17 -162t57 -102q87 -93 236 -93q97 0 167 33.5t173 128.5v-135 h204v913h-215v-452q0 -84 -8.5 -130t-28.5 -79q-66 -105 -194 -105q-58 0 -102 22t-64 60q-25 49 -25 177v507h-217v-583z" />
<glyph unicode="v" horiz-adv-x="995" d="M-16 1001h323l129 -399q21 -63 68 -225l22 80q28 79 56.5 168.5t64 204t53.5 171.5h310l-346 -1001h-328zM45 958l322 -915h266l317 915h-217l-119 -374q-50 -156 -112 -328q-7 23 -24 73t-25 77q-33 100 -179 552h-229z" />
<glyph unicode="w" horiz-adv-x="1562" d="M4 999h320l159 -571l144 571h309l149 -571l158 571h316l-318 -999h-315l-144 545l-141 -545h-317zM63 956l293 -913h252l172 666l178 -666h250l291 913h-221l-195 -686l-182 686h-239l-177 -690l-194 690h-228z" />
<glyph unicode="x" horiz-adv-x="1030" d="M-25 0l363 526l-332 473h348l160 -233l162 233h340l-332 -467l371 -532h-350l-193 289l-193 -289h-344zM57 43h240l215 326l217 -326h244l-340 489l299 424h-232l-186 -266l-182 266h-244l303 -430z" />
<glyph unicode="y" horiz-adv-x="995" d="M-31 999h326l207 -622l200 622h312l-361 -983q-55 -148 -91.5 -209.5t-92.5 -99.5q-50 -33 -98 -45t-142 -6l-32 2l-125 2v254h125q72 0 102.5 24t30.5 82q0 31 -8 50zM31 956l331 -872q11 -29 11 -64q0 -56 -27 -92.5t-76 -48.5q-20 -6 -155 -6v-172l84 -2h20 q108 0 151.5 9.5t86.5 43.5t71.5 87.5t81.5 193.5l342 923h-219l-233 -706l-238 706h-231z" />
<glyph unicode="z" horiz-adv-x="995" d="M37 0v229q327 366 475 529h-436v241h850v-217q-300 -341 -475 -534h507v-248h-921zM80 43h835v162h-563q42 46 142 155l389 439v157h-764v-155h487q-54 -65 -147 -166l-379 -422v-170z" />
<glyph unicode="{" d="M164 367v286q66 15 90.5 46t24.5 100v286q0 161 77 232q47 41 109 55t199 14q13 0 36.5 -0.5t67 -1.5t76.5 -2v-331h-51q-53 0 -80.5 -4t-44.5 -20t-21 -39t-4 -70v-175q0 -92 -23 -147.5t-77 -93.5q54 -37 77 -93.5t23 -150.5v-182q0 -66 6 -85.5t27 -33.5 q29 -18 123 -18q12 0 45 2v-318q-136 -4 -195 -4q-133 0 -196.5 17.5t-110.5 68.5q-63 69 -63 223v277q0 81 -23.5 114t-91.5 48zM207 401q62 -20 88.5 -65t26.5 -131v-277q0 -142 65 -204q41 -36 94 -49t168 -13q78 0 152 2v232q-61 0 -95 5t-60.5 23.5t-36 54t-9.5 95.5 v184q0 94 -25 143q-15 32 -33 48t-81 53q52 32 65.5 42.5t26.5 24.5q47 50 47 174v175q0 107 39 141.5t162 34.5v247l-139 2q-129 1 -187.5 -13t-97.5 -56q-55 -55 -55 -189v-286q0 -144 -115 -181v-217z" />
<glyph unicode="|" d="M326 -332v1698h370v-1698h-370zM369 -289h284v1612h-284v-1612z" />
<glyph unicode="}" d="M180 -45h51q53 0 80.5 4t44.5 20t21 39t4 70v172q0 94 23 150t77 94q-54 37 -77 93.5t-23 150.5v182q0 65 -6 85t-27 34q-29 18 -119 18q-10 0 -49 -2v317q48 1 94 2l69 1.5t28 0.5q136 0 200 -17.5t111 -68.5q63 -69 63 -225v-274q0 -81 23.5 -114t91.5 -48v-287 q-62 -16 -88.5 -46.5t-26.5 -100.5v-285q0 -160 -77 -231q-47 -41 -109 -55.5t-192 -14.5q-19 0 -187 4v332zM223 -88v-248q57 -2 139 -2q131 0 188 14t97 56q55 58 55 188v285q0 77 27.5 120t87.5 60v219q-62 20 -88.5 65.5t-26.5 131.5v274q0 148 -65 207q-40 37 -92.5 49 t-171.5 12q-31 0 -150 -2v-231q123 0 162 -35t39 -145v-182q0 -92 25 -144q18 -33 35.5 -48t80.5 -52q-55 -34 -68.5 -43.5t-25.5 -24.5q-47 -53 -47 -176v-172q0 -107 -39 -141.5t-162 -34.5z" />
<glyph unicode="~" horiz-adv-x="1366" d="M164 1233q64 159 144.5 232t189.5 73q68 0 237 -68q78 -32 101 -39.5t45 -7.5q38 0 64.5 25.5t70.5 105.5l188 -153q-32 -76 -47.5 -107t-38.5 -61q-101 -133 -260 -133q-46 0 -84 11t-151 58q-99 41 -138 41q-37 0 -62.5 -26t-68.5 -105zM217 1247l123 -100q36 56 69 81 t74 25q52 0 156 -45q106 -44 142.5 -54.5t76.5 -10.5q101 0 168.5 55.5t124.5 187.5l-123 101q-64 -107 -147 -107q-28 0 -52 7.5t-110 42.5q-162 65 -221 65q-175 0 -281 -248z" />
<glyph unicode="&#xa1;" horiz-adv-x="567" d="M125 -2l76 600h166l73 -600v-365h-315v365zM125 684v315h315v-315h-315zM168 -2v-322h229v322l-69 557h-88zM168 725h229v233h-229v-233z" />
<glyph unicode="&#xa2;" horiz-adv-x="1208" d="M100 713q0 209 110.5 343.5t311.5 172.5v190h191v-188q175 -12 287.5 -124t111.5 -273h-293q-12 122 -106 159v-555q101 38 110 189h297q-13 -181 -123 -297t-284 -135v-209h-191v209q-194 25 -308 164.5t-114 353.5zM143 713q0 -246 162 -383q58 -47 114.5 -68.5 t145.5 -28.5v-204h105v204q164 7 269.5 99.5t131.5 251.5h-209q-13 -89 -67 -145t-125 -58v668q69 -5 121 -52.5t65 -119.5h211q-12 135 -124.5 224t-272.5 91v184h-105v-182q-207 -32 -314.5 -154.5t-107.5 -326.5zM360 717q0 133 53.5 219t151.5 111v-668 q-205 67 -205 338zM403 715q0 -96 32.5 -170.5t86.5 -100.5v541q-119 -72 -119 -270z" />
<glyph unicode="&#xa3;" horiz-adv-x="1208" d="M100 578v190h107q-38 60 -53 107.5t-15 109.5q0 178 134.5 288.5t351.5 110.5q290 0 417 -204q65 -102 68 -287h-297q-1 120 -45.5 175.5t-138.5 55.5q-72 0 -120 -44t-48 -111q0 -37 10.5 -65t65.5 -134h254v-192h-191q16 -60 16 -91q0 -51 -24 -107t-66 -104q30 9 64 9 q64 0 149 -21q87 -20 115 -20q50 0 88 19t88 69l131 -226q-122 -131 -321 -131q-55 0 -92 7t-140 36q-110 29 -164 29q-51 0 -92 -16t-112 -64l-136 201q72 52 95 71.5t47 49.5q69 84 69 176q0 44 -26 113h-189zM143 621h174q41 -95 41 -156q0 -85 -47 -159t-147 -148 l88 -131q60 36 100 49.5t90 13.5q67 0 179 -31q100 -28 133.5 -34.5t85.5 -6.5q79 0 139 21t129 74l-88 149q-78 -61 -166 -61q-37 0 -125 22q-91 21 -174 21q-50 0 -104 -11q120 151 120 256q0 40 -28 132h205v106h-240q-18 42 -47 96q-43 82 -43 148q0 85 60 140.5 t151 55.5q103 0 159 -56.5t68 -174.5h209q-9 105 -30 162.5t-70 111.5q-116 131 -340 131q-198 0 -320.5 -98t-122.5 -258q0 -54 13 -96.5t49 -106.5l30 -55h-131v-106z" />
<glyph unicode="&#xa4;" horiz-adv-x="1468" d="M53 236l211 204q-69 126 -69 256q0 124 75 260l-217 209l199 193l219 -213q78 38 137 53.5t127 15.5q69 0 126 -15t132 -54l219 211l197 -193l-211 -205q78 -130 78 -264q0 -116 -72 -252l213 -204l-196 -195l-209 205q-138 -76 -267 -76q-141 0 -284 76l-211 -203z M117 236l133 -130l203 195q87 -46 154 -66t138 -20q44 0 95.5 14t80 27t97.5 45l203 -197l133 132l-203 198q48 89 65 141.5t17 116.5q0 74 -19 132.5t-71 142.5l203 196l-134 131l-211 -200q-89 46 -143.5 61.5t-122.5 15.5q-70 0 -123.5 -15t-148.5 -64l-211 204 l-135 -131l209 -202q-49 -84 -68.5 -143t-19.5 -124q0 -129 81 -262zM477 696q0 106 76 179t186 73q103 0 178.5 -74.5t75.5 -177.5q0 -104 -76 -178t-182 -74t-182 74t-76 178zM520 696q0 -86 63 -147.5t152 -61.5t152 61.5t63 147.5t-62.5 147.5t-150.5 61.5 q-91 0 -154 -60.5t-63 -148.5z" />
<glyph unicode="&#xa5;" horiz-adv-x="1243" d="M-47 1366h373l211 -362q30 -51 90 -181q60 131 96 193l205 350h364l-252 -461h144v-237h-277l-67 -115h344v-238h-398v-315h-325v315h-398v238h345l-68 115h-277v237h146zM27 1323l256 -461h-177v-151h261l114 -201h-375v-152h398v-315h239v315h398v152h-375l115 201h260 v151h-174l254 461h-267l-194 -330q-53 -90 -133 -282q-68 169 -127 270l-199 342h-274z" />
<glyph unicode="&#xa6;" d="M326 -332v678h370v-678h-370zM326 623v743h370v-743h-370zM369 -289h284v592h-284v-592zM369 666h284v657h-284v-657z" />
<glyph unicode="&#xa7;" horiz-adv-x="1208" d="M88 762q0 96 42.5 159.5t141.5 116.5q-40 54 -53.5 91t-13.5 90q0 144 114.5 238.5t288.5 94.5q127 0 228 -50t147 -136q43 -82 43 -205h-272q-6 82 -39 119t-99 37q-56 0 -88 -26t-32 -72q0 -33 18 -54.5t70 -52t182 -94.5q204 -100 280 -179t76 -192q0 -85 -43 -160 q-21 -33 -50 -59t-83 -59q49 -55 66.5 -99t17.5 -110q0 -154 -117 -250t-305 -96q-207 0 -320.5 106.5t-111.5 300.5h273q7 -70 20 -96q39 -76 143 -76q59 0 93 29t34 78q0 53 -61.5 99t-245.5 132q-133 61 -204.5 113.5t-102.5 109.5q-37 64 -37 152zM131 762 q0 -107 68 -179t250 -157q199 -92 266 -146t67 -122t-47 -109t-123 -41q-54 0 -98.5 20.5t-69.5 55.5q-15 20 -21.5 38.5t-12.5 55.5h-189q7 -152 109.5 -236.5t277.5 -84.5q169 0 274 84.5t105 220.5q0 64 -19 104.5t-81 110.5q90 57 117 84q35 34 55 83.5t20 102.5 q0 98 -69.5 168.5t-261.5 165.5q-139 69 -184.5 94.5t-69.5 48.5q-41 38 -41 97q0 63 44.5 101t118.5 38q75 0 117.5 -37t61.5 -119h186q-8 91 -37 142q-40 76 -130 120.5t-206 44.5q-155 0 -257.5 -82.5t-102.5 -207.5q0 -56 17 -94t71 -101q-108 -44 -156.5 -106.5 t-48.5 -157.5zM309 788q0 105 127 146q295 -142 393 -209q68 -46 68 -113q0 -108 -125 -149q-100 47 -222 112t-171 97q-70 45 -70 116zM354 786q0 -36 24 -60t107 -69q179 -97 289 -147q35 12 56.5 40t21.5 60q0 50 -47 80q-90 61 -373 199q-78 -31 -78 -103z" />
<glyph unicode="&#xa8;" d="M174 1106v264h285v-264h-285zM217 1149h199v178h-199v-178zM565 1106v264h285v-264h-285zM608 1149h199v178h-199v-178z" />
<glyph unicode="&#xa9;" horiz-adv-x="1572" d="M57 682q0 196 98 359.5t268.5 258.5t375.5 95q192 0 357.5 -96.5t262.5 -261t97 -355.5q0 -144 -58 -275.5t-155.5 -227t-232 -152t-282.5 -56.5t-283.5 56.5t-233.5 152t-156 227t-58 275.5zM100 682q0 -135 54.5 -258.5t147 -213.5t219.5 -143t267 -53 q186 0 343.5 89.5t249.5 243.5t92 335q0 134 -54 258t-145 214t-216 144t-261 54q-143 0 -272.5 -52.5t-222.5 -141.5t-147.5 -213.5t-54.5 -262.5zM205 682q0 120 46 227t125 184.5t189 123t232 45.5q153 0 284.5 -78.5t209 -212t77.5 -289.5t-77.5 -289t-212 -211 t-292.5 -78q-157 0 -291 78t-212 211t-78 289zM248 682q0 -144 72.5 -267.5t197 -195.5t270.5 -72q109 0 208 42.5t171.5 114t115 170.5t42.5 208q0 108 -42.5 207.5t-114 171.5t-169.5 115t-204 43q-150 0 -276 -71t-198.5 -194.5t-72.5 -271.5zM381 690q0 183 116.5 300.5 t297.5 117.5q200 0 305 -139q35 -44 48.5 -83t18.5 -104h-184q-33 125 -186 125q-85 0 -134 -59t-49 -160q0 -100 49 -158.5t132 -58.5q55 0 99 20t67 56q12 18 16 31.5t10 52.5h189q-6 -76 -17.5 -114.5t-42.5 -84.5q-109 -162 -325 -162q-183 0 -296.5 116.5t-113.5 303.5 zM424 690q0 -169 100 -273t264 -104q139 0 229.5 73.5t110.5 201.5h-104q-19 -75 -78.5 -117.5t-148.5 -42.5q-103 0 -164.5 71t-61.5 189q0 120 61.5 191t164.5 71q79 0 137.5 -33t81.5 -92h104q-22 108 -111 174t-214 66q-164 0 -267.5 -104.5t-103.5 -270.5z" />
<glyph unicode="&#xaa;" horiz-adv-x="718" d="M39 721q0 51 20.5 87.5t60.5 58t86 33.5t109 18q94 11 116 18.5t22 32.5q0 57 -95 57q-52 0 -72 -17.5t-28 -68.5h-195q6 117 80 172t224 55t225 -57q34 -28 46.5 -61.5t12.5 -98.5q-4 -194 -4 -229q0 -71 6 -102t27 -72h-211q-10 25 -10 39q-95 -56 -193 -56 q-104 0 -165.5 51.5t-61.5 139.5zM82 721q0 -72 48.5 -112t137.5 -40q43 0 76 7.5t68 26t84 54.5v-18q0 -26 6 -53h114q-12 44 -12 137q0 7 2 59t2 136v30q0 59 -8.5 84t-34.5 45q-60 51 -198 51q-78 0 -130.5 -15.5t-83 -48.5t-42.5 -85h110q15 46 47 66t90 20 q66 0 102 -25t36 -71q0 -30 -13 -45t-49.5 -25t-114.5 -18q-113 -13 -159 -35q-78 -38 -78 -125zM203 727q0 47 32 70.5t113 33.5q65 7 146 31v-86q0 -66 -49 -106.5t-126 -40.5q-54 0 -85 26t-31 72zM246 727q0 -59 73 -59q60 0 96 29.5t36 80.5v33q-29 -7 -50 -10l-47 -6 q-65 -9 -86.5 -23t-21.5 -45z" />
<glyph unicode="&#xab;" horiz-adv-x="851" d="M59 383v262l330 260v-268l-156 -121l156 -123v-274zM102 401l244 -192v164l-182 143l182 139v160l-244 -190v-224zM455 379v266l329 260v-272l-153 -119l153 -121v-274zM500 399l239 -190v164l-178 141l178 139v162l-239 -188v-228z" />
<glyph unicode="&#xac;" d="M47 303v320h928v-623h-359v303h-569zM90 346h569v-303h273v537h-842v-234z" />
<glyph unicode="&#xad;" horiz-adv-x="600" d="M0 389v275h600v-275h-600zM43 432h514v189h-514v-189z" />
<glyph unicode="&#xae;" horiz-adv-x="1572" d="M57 682q0 196 98 360t268 258.5t374 94.5q145 0 278 -57t229.5 -153t154 -228t57.5 -275q0 -144 -58 -275.5t-155.5 -227t-232 -152t-282.5 -56.5t-283.5 56.5t-233.5 152t-156 227t-58 275.5zM100 682q0 -135 54.5 -258.5t147 -213.5t219.5 -143t267 -53 q186 0 343.5 89.5t249.5 243.5t92 335q0 134 -54 258t-145 214t-216 144t-261 54q-143 0 -272.5 -52.5t-222.5 -141.5t-147.5 -213.5t-54.5 -262.5zM205 682q0 160 78 293t214 210t298 77q154 0 286 -78.5t209.5 -212t77.5 -289.5t-77.5 -289t-212 -211t-292.5 -78 q-157 0 -291 78t-212 211t-78 289zM248 682q0 -144 72.5 -267.5t196.5 -195.5t269 -72q146 0 270 71.5t196.5 195t72.5 268.5q0 108 -42.5 207.5t-114 171.5t-169.5 115t-204 43q-150 0 -276 -71t-198.5 -194.5t-72.5 -271.5zM467 287v807h352q126 0 193 -37 q116 -66 116 -199q0 -60 -24.5 -103.5t-79.5 -80.5q51 -35 68.5 -83.5t23.5 -166.5q2 -59 19 -109l10 -28h-225q-14 28 -18.5 55t-10.5 117q-6 78 -34.5 108.5t-94.5 30.5h-64v-311h-231zM510 330h145v311h107q95 0 137 -55q17 -22 25 -57.5t14 -120.5q5 -57 10 -78h135 q-8 43 -14 164q-5 68 -28 104t-72 53q-4 1 -54 21q15 6 32 13.5t23.5 10.5t16 7t12.5 5.5t8 4.5t8.5 5.5t8.5 6.5q61 49 61 133q0 106 -94 160q-57 33 -172 33h-309v-721zM655 702v279h133q152 0 152 -137q0 -142 -164 -142h-121zM698 745h78q64 0 92.5 23t28.5 76 q0 51 -25 72.5t-84 21.5h-90v-193z" />
<glyph unicode="&#xaf;" d="M143 1149v174h738v-174h-738zM186 1192h652v88h-652v-88z" />
<glyph unicode="&#xb0;" d="M166 1040q0 140 102 239t246 99q145 0 244.5 -98.5t99.5 -241.5q0 -136 -101.5 -234.5t-242.5 -98.5q-145 0 -246.5 98t-101.5 237zM209 1040q0 -122 89 -207t216 -85q123 0 212 85t89 205q0 124 -87.5 210.5t-213.5 86.5q-127 0 -216 -86t-89 -209zM291 1040 q0 89 65 154.5t154 65.5q92 0 157.5 -65t65.5 -159q0 -86 -66 -149.5t-155 -63.5q-91 0 -156 64t-65 153zM334 1040q0 -71 52.5 -122.5t125.5 -51.5q71 0 124.5 51.5t53.5 118.5q0 75 -52.5 128t-127.5 53q-70 0 -123 -53t-53 -124z" />
<glyph unicode="&#xb1;" d="M-2 37v190h1030v-190h-1030zM-2 651v189h414v397h200v-397h416v-189h-416v-385h-200v385h-414zM41 80h944v104h-944v-104zM41 694h414v-385h114v385h416v103h-416v397h-114v-397h-414v-103z" />
<glyph unicode="&#xb2;" horiz-adv-x="704" d="M31 516q1 52 5.5 87.5t18.5 71.5t34.5 63.5t58.5 62t85 67t119 78.5q53 33 73.5 61t20.5 64q0 25 -11 44.5t-31 30.5t-46 11q-37 0 -59.5 -16.5t-33 -53t-11.5 -98.5h-205q-2 16 -2 37q0 146 86 231.5t232 85.5q130 0 212 -73t82 -189q0 -56 -17.5 -99.5t-55.5 -82 t-103 -80.5q-63 -44 -77 -51l-46 -27q-9 -5 -53 -43q43 2 88 2l269 2v-186h-633zM74 559h547v98h-390q23 47 63.5 82t166.5 117q89 58 122 106t33 119q0 97 -69.5 158t-181.5 61q-122 0 -197 -69q-26 -24 -41.5 -51t-23.5 -62t-11 -86h119q7 87 43 128.5t102 41.5 q60 0 96.5 -36t36.5 -95q0 -60 -43 -106q-13 -13 -20.5 -19.5t-35 -26t-81.5 -55.5q-94 -62 -139.5 -103.5t-66.5 -86t-29 -115.5z" />
<glyph unicode="&#xb3;" horiz-adv-x="704" d="M27 805v26h206q1 -82 26 -114.5t85 -32.5q47 0 77 25.5t30 66.5t-31 67t-78 23l-41 -2h-8v158h18q121 0 121 76q0 32 -23 51.5t-63 19.5q-51 0 -72.5 -31t-23.5 -102h-203q2 74 13 114.5t42 80.5q80 112 244 112q129 0 210 -65.5t81 -169.5q0 -114 -86 -152 q56 -20 86.5 -66t30.5 -112q0 -121 -91 -198.5t-231 -77.5q-149 0 -234 81t-85 222zM72 788q5 -64 19.5 -101.5t49.5 -70.5q74 -71 205 -71q123 0 201 65t78 166q0 68 -37 108t-125 68q72 29 101.5 64.5t29.5 91.5q0 86 -68.5 139t-179.5 53q-119 0 -188 -69 q-30 -30 -44 -63t-22 -89h117q18 133 137 133q57 0 93 -31.5t36 -82.5q0 -54 -36.5 -85t-102.5 -32v-72h12q63 0 104.5 -37.5t41.5 -95.5q0 -60 -42 -97.5t-108 -37.5q-136 0 -154 147h-118z" />
<glyph unicode="&#xb4;" d="M242 1079l190 305h350l-315 -305h-225zM322 1122h129l229 219h-219z" />
<glyph unicode="&#xb5;" d="M37 -340v1335h317v-514q0 -68 6 -99.5t23 -59.5q48 -76 129 -76q77 0 117.5 62t40.5 179v508h315v-995h-315v61q-65 -79 -162 -79q-90 0 -154 67v-389h-317zM80 -297h231v506q60 -113 78 -131q47 -53 119 -53q85 0 133 73q14 23 72 172v-227h229v909h-229v-465 q0 -137 -52 -210.5t-149 -73.5q-54 0 -100 29t-74 81q-15 30 -21 65t-6 103v471h-231v-1249z" />
<glyph unicode="&#xb6;" horiz-adv-x="1286" d="M90 997q0 105 48 188.5t134 127.5q57 29 124 41t179 12h549v-158h-104v-1433h-197v1433h-137v-1433h-199v860q-184 4 -290.5 101.5t-106.5 260.5zM133 997q0 -142 96.5 -230.5t251.5 -88.5q13 0 27 2h22v-862h113v1433h223v-1433h111v1433h104v72h-506 q-116 0 -183.5 -13.5t-123.5 -47.5q-64 -40 -99.5 -110t-35.5 -155z" />
<glyph unicode="&#xb7;" horiz-adv-x="567" d="M123 459v323h321v-323h-321zM166 502h235v237h-235v-237z" />
<glyph unicode="&#xb8;" d="M272 -397l52 110q96 -37 157 -37q32 0 53 14.5t21 37.5t-18.5 37t-47.5 14q-23 0 -75 -17l-62 56l123 186h143l-73 -110q12 2 26 2q82 0 134.5 -44.5t52.5 -113.5q0 -82 -70.5 -134.5t-179.5 -52.5q-104 0 -236 52zM330 -377q78 -33 176 -33q89 0 148 42.5t59 107.5 q0 57 -48 91t-126 34q-13 0 -60 -6l66 102h-49l-93 -137l23 -21q50 15 72 15q43 0 71.5 -25.5t28.5 -64.5q0 -41 -32.5 -67t-86.5 -26q-67 0 -133 27z" />
<glyph unicode="&#xb9;" horiz-adv-x="710" d="M96 1018v166q123 0 174.5 33t63.5 120h178v-821h-221v502h-195zM139 1061h195v-502h135v735h-100q-30 -150 -230 -153v-80z" />
<glyph unicode="&#xba;" horiz-adv-x="761" d="M53 848q0 143 91.5 230t242.5 87q145 0 234.5 -88t89.5 -229q0 -143 -90.5 -231.5t-237.5 -88.5q-148 0 -239 88.5t-91 231.5zM96 846q0 -126 79 -202.5t208 -76.5t207 77t78 204q0 126 -77.5 202t-203.5 76q-132 0 -211.5 -76.5t-79.5 -203.5zM213 848q0 94 45.5 148.5 t124.5 54.5q77 0 121.5 -54.5t44.5 -148.5q0 -95 -45 -150t-123 -55t-123 55t-45 150zM258 848q0 -78 32.5 -122t92.5 -44q58 0 90.5 44t32.5 122q0 76 -33 120t-90 44q-60 0 -92.5 -43t-32.5 -121z" />
<glyph unicode="&#xbb;" horiz-adv-x="851" d="M70 123v266l153 121l-153 121v274l327 -260v-264zM113 213l241 188v224l-241 190v-164l180 -141l-180 -139v-158zM463 121v268l158 121l-158 125v274l332 -266v-264zM506 209l246 190v224l-246 196v-166l184 -145l-184 -139v-160z" />
<glyph unicode="&#xbc;" horiz-adv-x="1734" d="M96 1032v166h17q111 0 166 41q23 15 33.5 37.5t21.5 77.5h178v-822h-221v500h-195zM139 1075h195v-500h135v736h-100q-30 -150 -230 -156v-80zM373 -45l790 1419h203l-788 -1419h-205zM446 -2h105l741 1333h-102zM1055 178v176l358 469h184v-467h107v-178h-107v-178h-204 v178h-338zM1098 221h338v-178h118v178h107v92h-107v467h-118l-338 -440v-119zM1176 311l264 363v-361zM1262 354h135v187z" />
<glyph unicode="&#xbd;" horiz-adv-x="1734" d="M96 1032v166h17q111 0 166 41q23 15 33.5 37.5t21.5 77.5h178v-822h-221v500h-195zM139 1075h195v-500h135v736h-100q-30 -150 -230 -156v-80zM373 -45l790 1419h203l-788 -1419h-205zM446 -2h105l741 1333h-102zM1059 0q2 103 26.5 163.5t87.5 117.5t207 149 q52 34 73.5 62t21.5 63q0 38 -24.5 62t-64.5 24q-57 0 -79.5 -37.5t-24.5 -130.5h-205q-2 16 -2 37q0 145 86 230t232 85q131 0 213 -72.5t82 -187.5q0 -83 -40 -141.5t-137 -120.5q-45 -35 -77 -51l-45 -27q-12 -7 -54 -43q43 2 88 2l269 2v-186h-633zM1102 43h547v98h-389 q23 48 63.5 83t165.5 116q89 59 122.5 107t33.5 118q0 97 -70 157t-182 60q-122 0 -197 -69q-38 -35 -54.5 -78.5t-21.5 -118.5h119q7 86 43 127t102 41q59 0 96.5 -36.5t37.5 -94.5t-43 -104q-14 -17 -32 -29.5t-106 -71.5q-136 -89 -179.5 -145.5t-55.5 -159.5z" />
<glyph unicode="&#xbe;" horiz-adv-x="1728" d="M27 805v26h206q1 -82 26 -114.5t85 -32.5q47 0 77 25.5t30 66.5t-31 67t-78 23l-41 -2h-8v158h18q121 0 121 76q0 32 -23 51.5t-63 19.5q-51 0 -72.5 -31t-23.5 -102h-203q2 74 13 114.5t42 80.5q80 112 244 112q129 0 210 -65.5t81 -169.5q0 -114 -86 -152 q56 -20 86.5 -66t30.5 -112q0 -121 -91 -198.5t-231 -77.5q-149 0 -234 81t-85 222zM72 788q5 -64 19.5 -101.5t49.5 -70.5q74 -71 205 -71q123 0 201 65t78 166q0 68 -37 108t-125 68q72 29 101.5 64.5t29.5 91.5q0 86 -68.5 139t-179.5 53q-119 0 -188 -69 q-30 -30 -44 -63t-22 -89h117q18 133 137 133q57 0 93 -31.5t36 -82.5q0 -54 -36.5 -85t-102.5 -32v-72h12q63 0 104.5 -37.5t41.5 -95.5q0 -60 -42 -97.5t-108 -37.5q-136 0 -154 147h-118zM369 -45l790 1419h201l-787 -1419h-204zM440 -2h107l739 1333h-102zM1051 178v176 l356 469h184v-467h107v-178h-107v-178h-205v178h-335zM1094 221h336v-178h118v178h107v92h-107v467h-118l-336 -440v-119zM1169 311l267 363l-2 -361zM1257 354h134v187z" />
<glyph unicode="&#xbf;" horiz-adv-x="1064" d="M63 6q0 108 48 183.5t174 164.5q56 41 78.5 68t32.5 64.5t12 113.5h282v-43q0 -140 -43 -225q-21 -40 -45.5 -66.5t-109.5 -95.5q-60 -50 -82.5 -85.5t-22.5 -82.5q0 -60 41 -96.5t107 -36.5q167 0 167 219v12h310q-6 -194 -90 -309q-132 -184 -398 -184 q-206 0 -333.5 110.5t-127.5 288.5zM109 6q0 -161 114.5 -259.5t302.5 -98.5q210 0 332 131q51 54 74.5 115t34.5 163h-219q-18 -229 -213 -229q-85 0 -138 48.5t-53 125.5q0 61 25.5 104t97.5 99q79 63 114 105.5t49.5 96t16.5 150.5h-196q-3 -89 -30.5 -135t-109.5 -103 q-115 -83 -158.5 -150.5t-43.5 -162.5zM393 684v315h314v-315h-314zM438 725h226v233h-226v-233z" />
<glyph unicode="&#xc0;" horiz-adv-x="1314" d="M-25 0l521 1368h325l518 -1368h-344l-106 297h-467l-109 -297h-338zM39 43h244l108 297h529l106 -297h250l-485 1282h-265zM217 1776h354l199 -306h-229zM324 1733l235 -220h133l-145 220h-223zM444 506l215 577l207 -577h-422zM506 547h299l-150 422z" />
<glyph unicode="&#xc1;" horiz-adv-x="1314" d="M-25 0l521 1368h325l518 -1368h-344l-106 297h-467l-109 -297h-338zM39 43h244l108 297h529l106 -297h250l-485 1282h-265zM444 506l215 577l207 -577h-422zM506 547h299l-150 422zM557 1470l191 306h350l-316 -306h-225zM637 1513h129l229 220h-219z" />
<glyph unicode="&#xc2;" horiz-adv-x="1314" d="M-25 0l521 1368h325l518 -1368h-344l-106 297h-467l-109 -297h-338zM39 43h244l108 297h529l106 -297h250l-485 1282h-265zM305 1470l236 306h260l235 -306h-262l-108 148l-111 -148h-250zM393 1513h139l136 177l129 -177h151l-170 220h-215zM444 506l215 577l207 -577 h-422zM506 547h299l-150 422z" />
<glyph unicode="&#xc3;" horiz-adv-x="1314" d="M-25 0l521 1368h325l518 -1368h-344l-106 297h-467l-109 -297h-338zM39 43h244l108 297h529l106 -297h250l-485 1282h-265zM319 1483q20 132 82 201t160 69q40 0 73.5 -10t129.5 -51q32 -13 61 -13q26 0 42.5 18t29.5 62h152q-43 -264 -228 -264q-58 0 -174 41 q-80 27 -104 27q-27 0 -42.5 -17.5t-29.5 -62.5h-152zM371 1526h67q23 44 45.5 61t57.5 17q37 0 118 -29q110 -37 162 -37q66 0 108 42t68 136h-67q-38 -78 -107 -78q-28 0 -45 5.5t-104 42.5q-63 24 -113 24q-70 0 -119 -47.5t-71 -136.5zM444 506l215 577l207 -577h-422z M506 547h299l-150 422z" />
<glyph unicode="&#xc4;" horiz-adv-x="1314" d="M-25 0l521 1368h325l518 -1368h-344l-106 297h-467l-109 -297h-338zM37 43h246l108 297h531l104 -297h252l-487 1282h-265zM313 1450v250h287v-250h-287zM356 1491h199v168h-199v-168zM444 506q123 341 138 385q24 73 75 199q26 -69 70 -197q9 -29 18.5 -56.5t15.5 -43 t7 -17.5l98 -270h-422zM506 547h299l-78 215q-38 104 -72 217q-30 -97 -73 -217zM731 1450v250h285v-250h-285zM774 1491h199v168h-199v-168z" />
<glyph unicode="&#xc5;" horiz-adv-x="1314" d="M-25 0l521 1368h325l518 -1368h-344l-106 297h-467l-109 -297h-338zM39 43h244l108 297h529l106 -297h250l-485 1282h-265zM418 1700q0 101 73 172.5t177 71.5q98 0 169.5 -73t71.5 -173q0 -103 -72 -175.5t-173 -72.5q-103 0 -174.5 73t-71.5 177zM444 506l215 577 l207 -577h-422zM461 1698q0 -85 59 -145t144 -60q83 0 142.5 60t59.5 145q0 82 -59 142.5t-139 60.5q-86 0 -146.5 -59t-60.5 -144zM506 547h299l-150 422zM520 1700q0 58 43 99.5t103 41.5q57 0 99 -42.5t42 -100.5q0 -59 -42.5 -101.5t-100.5 -42.5q-60 0 -102 43t-42 103 zM563 1696q0 -41 30 -71t71 -30t70.5 30t29.5 71t-29 70.5t-69 29.5q-43 0 -73 -29.5t-30 -70.5z" />
<glyph unicode="&#xc6;" horiz-adv-x="1847" d="M-43 0l653 1366h1164v-276h-623v-254h584v-267h-584v-286h639v-283h-954v289h-392l-135 -289h-352zM25 43h256l135 289h463v-289h868v197h-639v372h582v181h-582v340h621v190h-1090zM487 496l289 641h105v-641h-394zM553 537h283v557h-33z" />
<glyph unicode="&#xc7;" horiz-adv-x="1421" d="M78 676q0 212 84.5 376t237 254.5t348.5 90.5q285 0 460 -193q61 -68 93.5 -144t44.5 -179h-328q-15 110 -88 171.5t-189 61.5q-152 0 -242.5 -116.5t-90.5 -313.5q0 -180 73 -295q85 -139 260 -139q128 0 200.5 76t84.5 223h328q-11 -254 -175.5 -415.5t-414.5 -164.5 l-27 -41q69 -6 102.5 -14.5t57.5 -28.5q47 -37 47 -106q0 -86 -68.5 -138.5t-181.5 -52.5q-94 0 -235 52l51 112q100 -37 158 -37q33 0 54 15.5t21 38.5q0 22 -20.5 35.5t-52.5 13.5q-25 0 -70 -19l-57 58l80 118q-244 31 -394.5 224.5t-150.5 476.5zM121 678 q0 -161 54 -298t153 -226q72 -66 156.5 -99.5t203.5 -44.5l-94 -151l18 -17q48 13 68 13q46 0 76 -24.5t30 -61.5q0 -42 -33 -68.5t-87 -26.5q-40 0 -134 25l-16 -41q78 -33 174 -33q94 0 152.5 42.5t58.5 111.5q0 54 -45.5 84.5t-122.5 30.5q-25 0 -59 -3l71 119 q227 -2 382.5 135.5t177.5 360.5h-238q-19 -86 -41 -132.5t-63 -84.5q-83 -80 -222 -80q-196 0 -297 158q-79 127 -79 319q0 214 103 342.5t273 128.5q120 0 203 -61.5t111 -171.5h239q-21 153 -137 272q-156 160 -409 160q-280 0 -453.5 -188t-173.5 -490z" />
<glyph unicode="&#xc8;" horiz-adv-x="1243" d="M127 0v1366h1034v-276h-708v-252h649v-267h-649v-288h721v-283h-1047zM170 43h960v197h-720v374h649v181h-649v338h708v190h-948v-1280zM195 1776h354l199 -306h-230zM301 1733l236 -220h133l-146 220h-223z" />
<glyph unicode="&#xc9;" horiz-adv-x="1243" d="M127 0v1366h1034v-276h-708v-252h649v-267h-649v-288h721v-283h-1047zM170 43h960v197h-720v374h649v181h-649v338h708v190h-948v-1280zM522 1470l191 306h350l-315 -306h-226zM602 1513h129l230 220h-220z" />
<glyph unicode="&#xca;" horiz-adv-x="1243" d="M127 0v1366h1034v-276h-708v-252h649v-267h-649v-288h721v-283h-1047zM170 43h960v197h-720v374h649v181h-649v338h708v190h-948v-1280zM283 1470l235 306h260l236 -306h-262l-109 148l-111 -148h-249zM371 1513h139l135 177l129 -177h152l-170 220h-215z" />
<glyph unicode="&#xcb;" horiz-adv-x="1243" d="M127 0v1366h1034v-276h-708v-252h649v-267h-649v-288h721v-283h-1047zM170 43h960v197h-720v374h649v181h-649v338h708v190h-948v-1280zM311 1497v264h285v-264h-285zM354 1540h199v178h-199v-178zM702 1499v262h285v-262h-285zM745 1540h199v178h-199v-178z" />
<glyph unicode="&#xcc;" horiz-adv-x="567" d="M-150 1776h355l198 -306h-229zM-43 1733l236 -220h133l-146 220h-223zM121 0v1366h328v-1366h-328zM164 43h242v1280h-242v-1280z" />
<glyph unicode="&#xcd;" horiz-adv-x="567" d="M121 0v1366h330v-1366h-330zM164 43h244v1280h-244v-1280zM178 1470l191 306h350l-316 -306h-225zM258 1513h129l229 220h-219z" />
<glyph unicode="&#xce;" horiz-adv-x="567" d="M-68 1470l236 306h260l236 -306h-263l-108 148l-111 -148h-250zM20 1513h140l135 177l129 -177h151l-169 220h-216zM119 0v1366h330v-1366h-330zM162 43h244v1280h-244v-1280z" />
<glyph unicode="&#xcf;" horiz-adv-x="567" d="M20 1497v264h218v-264h-218zM63 1540h132v178h-132v-178zM119 0v1366h330v-1366h-330zM162 43h244v1280h-244v-1280zM342 1499v262h217v-262h-217zM387 1540h129v178h-129v-178z" />
<glyph unicode="&#xd0;" horiz-adv-x="1382" d="M-59 610v160h172v596h555q151 0 261.5 -35.5t196.5 -111.5q98 -88 151.5 -223t53.5 -298q0 -352 -194 -540q-86 -85 -193 -121.5t-270 -36.5h-561v610h-172zM-16 653h172v-610h518q157 0 256 33t178 112q180 174 180 510q0 153 -49 279t-141 209q-78 72 -180.5 104.5 t-249.5 32.5h-512v-596h-172v-74zM395 238v415h291v76h-291v399h238q200 0 305.5 -113t105.5 -327q0 -249 -129 -369q-45 -44 -108 -62.5t-164 -18.5h-248zM438 281h205q99 0 157 19t101 65q100 109 100 323q0 195 -93.5 296t-274.5 101h-195v-315h293v-160h-293v-329z" />
<glyph unicode="&#xd1;" horiz-adv-x="1421" d="M125 0v1366h321l531 -817v817h319v-1366h-325l-529 825v-825h-317zM168 43h231v932l596 -932h258v1280h-233v-924l-598 924h-254v-1280zM399 1483q20 132 82 201t160 69q40 0 73.5 -10t129.5 -51q32 -13 61 -13q26 0 42.5 18t29.5 62h151q-43 -264 -227 -264 q-58 0 -174 41q-80 27 -104 27q-27 0 -42.5 -17.5t-29.5 -62.5h-152zM451 1526h67q23 44 45.5 61t57.5 17q37 0 118 -29q110 -37 162 -37q66 0 108 42t68 136h-67q-38 -78 -107 -78q-28 0 -45 5.5t-104 42.5q-63 24 -113 24q-70 0 -119 -47.5t-71 -136.5z" />
<glyph unicode="&#xd2;" horiz-adv-x="1490" d="M72 682q0 325 186.5 521t497.5 196q144 0 267 -53t209.5 -147t135.5 -227.5t49 -289.5q0 -320 -185 -517.5t-484 -197.5q-302 0 -489 197.5t-187 517.5zM115 682q0 -302 174.5 -487t458.5 -185q281 0 453.5 185.5t172.5 486.5q0 196 -78 350t-219 239t-321 85 q-292 0 -466.5 -183.5t-174.5 -490.5zM317 1776h355l198 -306h-229zM358 684q0 221 106 350t288 129q172 0 275 -130t103 -347q0 -221 -103.5 -352t-276.5 -131q-180 0 -286 130t-106 351zM403 684q0 -202 93.5 -320t253.5 -118q156 0 246.5 119t90.5 323q0 198 -90.5 316 t-244.5 118q-162 0 -255.5 -117t-93.5 -321zM424 1733l235 -220h134l-146 220h-223z" />
<glyph unicode="&#xd3;" horiz-adv-x="1490" d="M72 682q0 325 186.5 521t497.5 196q144 0 267 -53t209.5 -147t135.5 -227.5t49 -289.5q0 -320 -185 -517.5t-484 -197.5q-302 0 -489 197.5t-187 517.5zM115 682q0 -302 174.5 -487t458.5 -185q281 0 453.5 185.5t172.5 486.5q0 196 -78 350t-219 239t-321 85 q-292 0 -466.5 -183.5t-174.5 -490.5zM358 684q0 221 106 350t288 129q172 0 275 -130t103 -347q0 -221 -103.5 -352t-276.5 -131q-180 0 -286 130t-106 351zM403 684q0 -202 93.5 -320t253.5 -118q156 0 246.5 119t90.5 323q0 198 -90.5 316t-244.5 118q-162 0 -255.5 -117 t-93.5 -321zM645 1470l191 306h350l-316 -306h-225zM725 1513h129l229 220h-219z" />
<glyph unicode="&#xd4;" horiz-adv-x="1490" d="M72 682q0 325 186.5 521t497.5 196q144 0 267 -53t209.5 -147t135.5 -227.5t49 -289.5q0 -320 -185 -517.5t-484 -197.5q-302 0 -489 197.5t-187 517.5zM115 682q0 -302 174.5 -487t458.5 -185q281 0 453.5 185.5t172.5 486.5q0 196 -78 350t-219 239t-321 85 q-292 0 -466.5 -183.5t-174.5 -490.5zM358 684q0 221 106 350t288 129q172 0 275 -130t103 -347q0 -221 -103.5 -352t-276.5 -131q-180 0 -286 130t-106 351zM387 1470l236 306h260l235 -306h-262l-108 148l-111 -148h-250zM403 684q0 -202 93.5 -320t253.5 -118 q156 0 246.5 119t90.5 323q0 198 -90.5 316t-244.5 118q-162 0 -255.5 -117t-93.5 -321zM475 1513h139l136 177l129 -177h151l-170 220h-215z" />
<glyph unicode="&#xd5;" horiz-adv-x="1490" d="M72 682q0 325 186.5 521t497.5 196q144 0 267 -53t209.5 -147t135.5 -227.5t49 -289.5q0 -320 -185 -517.5t-484 -197.5q-302 0 -489 197.5t-187 517.5zM115 682q0 -302 174.5 -487t458.5 -185q281 0 453.5 185.5t172.5 486.5q0 196 -78 350t-219 239t-321 85 q-292 0 -466.5 -183.5t-174.5 -490.5zM358 684q0 221 106 350t288 129q172 0 275 -130t103 -347q0 -221 -103.5 -352t-276.5 -131q-180 0 -286 130t-106 351zM403 684q0 -202 93.5 -320t253.5 -118q156 0 246.5 119t90.5 323q0 198 -90.5 316t-244.5 118q-162 0 -255.5 -117 t-93.5 -321zM434 1483q20 132 82 201t160 69q40 0 73.5 -10t129.5 -51q32 -13 61 -13q26 0 42.5 18t29.5 62h151q-43 -264 -227 -264q-58 0 -174 41q-80 27 -105 27q-27 0 -42 -17.5t-29 -62.5h-152zM485 1526h68q23 44 45 61t57 17q38 0 119 -29q110 -37 162 -37 q66 0 108 42t68 136h-68q-20 -42 -44.5 -60t-61.5 -18q-28 0 -46 6t-104 42q-63 24 -112 24q-71 0 -120 -47.5t-71 -136.5z" />
<glyph unicode="&#xd6;" horiz-adv-x="1490" d="M72 682q0 325 186.5 521t497.5 196q144 0 267 -53t209.5 -147t135.5 -227.5t49 -289.5q0 -320 -185 -517.5t-484 -197.5q-302 0 -489 197.5t-187 517.5zM115 682q0 -302 174.5 -487t458.5 -185q281 0 453.5 185.5t172.5 486.5q0 196 -78 350t-219 239t-321 85 q-292 0 -466.5 -183.5t-174.5 -490.5zM358 684q0 221 106 350t288 129q172 0 275 -130t103 -347q0 -221 -102.5 -352t-277.5 -131q-180 0 -286 130t-106 351zM399 1450v250h287v-250h-287zM403 684q0 -202 93.5 -320t253.5 -118q156 0 246.5 119t90.5 323q0 198 -90.5 316 t-244.5 118q-162 0 -255.5 -117t-93.5 -321zM442 1491h201v168h-201v-168zM817 1450v250h287v-250h-287zM862 1491h199v168h-199v-168z" />
<glyph unicode="&#xd7;" d="M55 463l301 291l-295 284l154 152l295 -289l297 293l160 -156l-301 -288l299 -287l-156 -152l-295 291l-299 -293zM119 463l96 -92l299 293l295 -291l92 90l-299 287l303 288l-98 95l-297 -293l-295 288l-92 -90l297 -284z" />
<glyph unicode="&#xd8;" horiz-adv-x="1490" d="M33 47l168 186q-63 83 -97 201t-34 252q0 319 185.5 515t487.5 196q237 0 398 -121l155 172l154 -137l-162 -183q129 -179 129 -450q0 -209 -84.5 -370.5t-237.5 -251t-350 -89.5q-113 0 -207 29t-188 92l-162 -182zM94 49l90 -82l160 178q104 -75 195.5 -106t208.5 -31 q281 0 453.5 185t172.5 485q0 140 -33.5 248t-107.5 207l158 174l-91 82l-153 -170q-91 72 -185 103.5t-217 31.5q-285 0 -458.5 -183.5t-173.5 -484.5q0 -275 143 -455zM356 696q0 211 107 340t280 129q78 0 137.5 -23.5t125.5 -80.5l-586 -649q-64 128 -64 284zM399 692 q0 -124 33 -203l512 568q-82 67 -199 67q-160 0 -253 -116.5t-93 -315.5zM485 299l586 651q36 -71 49 -126t13 -134q0 -230 -103.5 -359.5t-288.5 -129.5q-146 0 -256 98zM547 305q84 -63 194 -63q165 0 257 118t92 330q0 87 -31 184z" />
<glyph unicode="&#xd9;" horiz-adv-x="1421" d="M123 571v795h328v-813q0 -83 9 -129.5t32 -79.5q61 -94 225 -94q141 0 197.5 67.5t56.5 235.5v813h327v-799q0 -154 -23.5 -243.5t-84.5 -165.5q-145 -185 -477 -185q-354 0 -502 209q-48 70 -68 158t-20 231zM166 571q0 -148 21 -233t75 -152q70 -89 179.5 -130.5 t271.5 -41.5q169 0 281.5 46.5t179.5 144.5q46 67 63.5 146.5t17.5 215.5v756h-241v-770q0 -186 -68 -265t-227 -79q-189 0 -264 110q-26 40 -36.5 92t-10.5 142v770h-242v-752zM291 1776h354l199 -306h-230zM397 1733l236 -220h133l-145 220h-224z" />
<glyph unicode="&#xda;" horiz-adv-x="1421" d="M123 571v795h328v-813q0 -83 9 -129.5t32 -79.5q61 -94 225 -94q141 0 197.5 67.5t56.5 235.5v813h327v-799q0 -154 -23.5 -243.5t-84.5 -165.5q-145 -185 -477 -185q-354 0 -502 209q-48 70 -68 158t-20 231zM166 571q0 -148 21 -233t75 -152q70 -89 179.5 -130.5 t271.5 -41.5q169 0 281.5 46.5t179.5 144.5q46 67 63.5 146.5t17.5 215.5v756h-241v-770q0 -186 -68 -265t-227 -79q-189 0 -264 110q-26 40 -36.5 92t-10.5 142v770h-242v-752zM584 1470l190 306h350l-315 -306h-225zM664 1513h129l229 220h-219z" />
<glyph unicode="&#xdb;" horiz-adv-x="1421" d="M123 571v795h328v-813q0 -83 9 -129.5t32 -79.5q61 -94 225 -94q141 0 197.5 67.5t56.5 235.5v813h327v-799q0 -154 -23.5 -243.5t-84.5 -165.5q-145 -185 -477 -185q-354 0 -502 209q-48 70 -68 158t-20 231zM166 571q0 -148 21 -233t75 -152q70 -89 179.5 -130.5 t271.5 -41.5q169 0 281.5 46.5t179.5 144.5q46 67 63.5 146.5t17.5 215.5v756h-241v-770q0 -186 -68 -265t-227 -79q-189 0 -264 110q-26 40 -36.5 92t-10.5 142v770h-242v-752zM367 1470l235 306h260l236 -306h-262l-109 148l-111 -148h-249zM455 1513h139l135 177 l129 -177h152l-170 220h-215z" />
<glyph unicode="&#xdc;" horiz-adv-x="1421" d="M123 571v795h328v-813q0 -148 41 -209q62 -92 223 -92q148 0 211 90q24 34 33.5 80t9.5 131v813h327v-799q0 -155 -23.5 -245t-84.5 -164q-78 -96 -192.5 -140.5t-284.5 -44.5q-180 0 -301.5 51t-196.5 158q-51 70 -70.5 155.5t-19.5 233.5zM166 571q0 -149 21 -233 t75 -152q72 -88 180 -129t269 -41q167 0 279 46.5t181 144.5q46 66 64 145t18 215v756h-241v-770q0 -94 -10.5 -145.5t-38.5 -92.5q-75 -106 -250 -106q-164 0 -235.5 82.5t-71.5 261.5v770h-240v-752zM365 1448v252h286v-252h-286zM408 1491h200v166h-200v-166zM782 1450 v250h287v-250h-287zM827 1491h199v166h-199v-166z" />
<glyph unicode="&#xdd;" horiz-adv-x="1277" d="M-33 1366h375q10 -17 110 -190t150 -265l41 -71q33 63 74.5 136.5t72 125.5t80 136.5t74.5 127.5h369l-510 -840v-526h-326v530zM43 1323l477 -782v-498h240v494l475 786h-264q-28 -48 -80 -135.5t-94 -159.5t-78 -137l-76 -127q-76 121 -76 127q-36 65 -78.5 137.5 t-93.5 159t-80 135.5h-272zM553 1470l190 306h351l-316 -306h-225zM633 1513h129l229 220h-219z" />
<glyph unicode="&#xde;" horiz-adv-x="1277" d="M119 0v1366h325v-192h236q140 0 221.5 -18t147.5 -64q88 -60 134 -154.5t46 -214.5q0 -214 -150 -340q-65 -53 -146.5 -76.5t-199.5 -23.5h-289v-283h-325zM162 43h239v283h332q112 0 186.5 21t133.5 69q133 112 133 307q0 108 -42 194t-120 140q-60 41 -134.5 57 t-209.5 16h-279v193h-239v-1280zM401 510v426h277q140 0 208 -52.5t68 -160.5q0 -213 -260 -213h-293zM444 553h248q113 0 165 41.5t52 130.5q0 88 -55 128t-178 40h-232v-340z" />
<glyph unicode="&#xdf;" horiz-adv-x="1171" d="M119 0v866q0 136 14.5 208t54.5 132q57 86 159.5 133t234.5 47q195 0 315.5 -100t120.5 -264q0 -172 -139 -258q99 -38 153.5 -127t54.5 -211q0 -107 -42.5 -198t-122.5 -156q-111 -90 -291 -90q-66 0 -137 14v242q68 -9 88 -9q93 0 147.5 57t54.5 154q0 106 -59 155.5 t-188 49.5q-25 0 -43 -2v207q23 -2 49 -2q90 0 137 38.5t47 112.5q0 64 -42.5 103t-111.5 39q-42 0 -77 -17t-52 -45q-26 -43 -26 -164v-915h-299zM162 43h213v872q0 134 31 187q23 37 67.5 58.5t99.5 21.5q88 0 142.5 -50.5t54.5 -132.5q0 -52 -22.5 -94.5t-61.5 -66.5 q-53 -31 -149 -31v-121q82 -2 124.5 -11.5t77.5 -35.5q88 -66 88 -199q0 -112 -65.5 -182t-171.5 -70q-28 0 -53 2v-159q49 -8 96 -8q161 0 264 81q147 122 147 320q0 262 -251 330q98 56 140 117.5t42 150.5q0 146 -107.5 235t-285.5 89q-119 0 -212.5 -42.5t-146.5 -119.5 q-35 -54 -48 -122t-13 -196v-823z" />
<glyph unicode="&#xe0;" horiz-adv-x="1101" d="M45 283q0 95 46 164t134 106q74 34 256 53q61 8 94 12t63.5 11t42.5 12t21.5 15.5t11 21t1.5 29.5q0 55 -40.5 81.5t-125.5 26.5q-88 0 -125 -32t-49 -117h-289q6 97 34 158t91 110q116 94 352 94q238 0 357 -96q54 -44 72 -97t18 -163q-6 -329 -6 -389q0 -118 8 -168.5 t37 -114.5h-312q-14 43 -16 78q-88 -59 -158.5 -82t-163.5 -23q-164 0 -259 83.5t-95 226.5zM88 283q0 -126 82.5 -196.5t230.5 -70.5q99 0 176.5 29.5t180.5 106.5q0 -74 12 -109h213q-22 81 -22 240q0 13 3 102t3 231v54q0 100 -15 145t-59 82q-108 88 -330 88 q-395 0 -430 -276h203q17 75 68.5 111t144.5 36q101 0 155 -38.5t54 -110.5q0 -30 -6 -48.5t-21 -33.5t-48 -25t-77.5 -18t-120.5 -17q-190 -24 -264 -59q-133 -66 -133 -223zM150 1384h354l198 -305h-229zM256 1341l236 -219h133l-146 219h-223zM309 293q0 90 74 129 q55 27 152 39q98 13 219 45v-127q0 -54 -13 -88t-45 -66q-83 -86 -211 -86q-83 0 -129.5 41t-46.5 113zM354 293q0 -54 34 -82.5t97 -28.5q115 0 183 74q25 26 34 52t9 71v74l-72 -19q-9 -2 -23 -3.5t-30 -4.5l-45 -8q-113 -21 -150 -44.5t-37 -80.5z" />
<glyph unicode="&#xe1;" horiz-adv-x="1101" d="M45 283q0 95 46 164t134 106q74 34 256 53q61 8 94 12t63.5 11t42.5 12t21.5 15.5t11 21t1.5 29.5q0 55 -40.5 81.5t-125.5 26.5q-88 0 -125 -32t-49 -117h-289q6 97 34 158t91 110q116 94 352 94q238 0 357 -96q54 -44 72 -97t18 -163q-6 -329 -6 -389q0 -118 8 -168.5 t37 -114.5h-312q-14 43 -16 78q-88 -59 -158.5 -82t-163.5 -23q-164 0 -259 83.5t-95 226.5zM88 283q0 -126 82.5 -196.5t230.5 -70.5q99 0 176.5 29.5t180.5 106.5q0 -74 12 -109h213q-22 81 -22 240q0 13 3 102t3 231v54q0 100 -15 145t-59 82q-108 88 -330 88 q-395 0 -430 -276h203q17 75 68.5 111t144.5 36q101 0 155 -38.5t54 -110.5q0 -30 -6 -48.5t-21 -33.5t-48 -25t-77.5 -18t-120.5 -17q-190 -24 -264 -59q-133 -66 -133 -223zM309 293q0 90 74 129q55 27 152 39q98 13 219 45v-127q0 -54 -13 -88t-45 -66q-83 -86 -211 -86 q-83 0 -129.5 41t-46.5 113zM354 293q0 -54 34 -82.5t97 -28.5q115 0 183 74q25 26 34 52t9 71v74l-72 -19q-9 -2 -23 -3.5t-30 -4.5l-45 -8q-113 -21 -150 -44.5t-37 -80.5zM440 1079l191 305h350l-315 -305h-226zM520 1122h129l230 219h-220z" />
<glyph unicode="&#xe2;" horiz-adv-x="1101" d="M45 283q0 95 46 164t134 106q74 34 256 53q61 8 94 12t63.5 11t42.5 12t21.5 15.5t11 21t1.5 29.5q0 55 -40.5 81.5t-125.5 26.5q-88 0 -125 -32t-49 -117h-289q6 97 34 158t91 110q116 94 352 94q238 0 357 -96q54 -44 72 -97t18 -163q-6 -329 -6 -389q0 -118 8 -168.5 t37 -114.5h-312q-14 43 -16 78q-88 -59 -158.5 -82t-163.5 -23q-164 0 -259 83.5t-95 226.5zM88 283q0 -126 82.5 -196.5t230.5 -70.5q99 0 176.5 29.5t180.5 106.5q0 -74 12 -109h213q-22 81 -22 240q0 13 3 102t3 231v54q0 100 -15 145t-59 82q-108 88 -330 88 q-395 0 -430 -276h203q17 75 68.5 111t144.5 36q101 0 155 -38.5t54 -110.5q0 -30 -6 -48.5t-21 -33.5t-48 -25t-77.5 -18t-120.5 -17q-190 -24 -264 -59q-133 -66 -133 -223zM211 1079l235 305h261l235 -305h-262l-109 148l-110 -148h-250zM299 1122h139l135 176l129 -176 h152l-170 219h-215zM309 293q0 90 74 129q55 27 152 39q98 13 219 45v-127q0 -54 -13 -88t-45 -66q-83 -86 -211 -86q-83 0 -129.5 41t-46.5 113zM354 293q0 -54 34 -82.5t97 -28.5q115 0 183 74q25 26 34 52t9 71v74l-72 -19q-9 -2 -23 -3.5t-30 -4.5l-45 -8 q-113 -21 -150 -44.5t-37 -80.5z" />
<glyph unicode="&#xe3;" horiz-adv-x="1101" d="M45 283q0 95 46 164t134 106q74 34 256 53q61 8 94 12t63.5 11t42.5 12t21.5 15.5t11 21t1.5 29.5q0 55 -40.5 81.5t-125.5 26.5q-88 0 -125 -32t-49 -117h-289q6 97 34 158t91 110q116 94 352 94q238 0 357 -96q54 -44 72 -97t18 -163q-6 -329 -6 -389q0 -118 8 -168.5 t37 -114.5h-312q-14 43 -16 78q-88 -59 -158.5 -82t-163.5 -23q-164 0 -259 83.5t-95 226.5zM88 283q0 -126 82.5 -196.5t230.5 -70.5q99 0 176.5 29.5t180.5 106.5q0 -74 12 -109h213q-22 81 -22 240q0 13 3 102t3 231v54q0 100 -15 145t-59 82q-108 88 -330 88 q-395 0 -430 -276h203q17 75 68.5 111t144.5 36q101 0 155 -38.5t54 -110.5q0 -30 -6 -48.5t-21 -33.5t-48 -25t-77.5 -18t-120.5 -17q-190 -24 -264 -59q-133 -66 -133 -223zM225 1092q20 132 82 201t160 69q38 0 71 -10t132 -52q30 -12 61 -12q27 0 43 17.5t29 62.5h151 q-43 -264 -227 -264q-58 0 -174 41q-77 26 -104 26q-28 0 -43 -17t-29 -62h-152zM276 1135h68q23 44 45 60.5t57 16.5q41 0 119 -28q110 -37 162 -37q66 0 108 42t68 136h-67q-38 -78 -107 -78q-29 0 -47 5.5t-102 41.5q-66 25 -113 25q-71 0 -120 -47.5t-71 -136.5z M309 293q0 90 74 129q55 27 152 39q98 13 219 45v-127q0 -54 -13 -88t-45 -66q-83 -86 -211 -86q-83 0 -129.5 41t-46.5 113zM354 293q0 -54 34 -82.5t97 -28.5q115 0 183 74q25 26 34 52t9 71v74l-72 -19q-9 -2 -23 -3.5t-30 -4.5l-45 -8q-113 -21 -150 -44.5t-37 -80.5z " />
<glyph unicode="&#xe4;" horiz-adv-x="1101" d="M45 283q0 95 46 164t134 106q74 34 256 53q61 8 94 12t63.5 11t42.5 12t21.5 15.5t11 21t1.5 29.5q0 55 -40.5 81.5t-125.5 26.5q-88 0 -125 -32t-49 -117h-289q6 97 34 158t91 110q116 94 352 94q238 0 357 -96q54 -44 72 -97t18 -163q-6 -329 -6 -389q0 -118 8 -168.5 t37 -114.5h-312q-14 43 -16 78q-88 -59 -158.5 -82t-163.5 -23q-164 0 -259 83.5t-95 226.5zM88 283q0 -126 82.5 -196.5t230.5 -70.5q99 0 176.5 29.5t180.5 106.5q0 -74 12 -109h213q-22 81 -22 240q0 13 3 102t3 231v54q0 100 -15 145t-59 82q-108 88 -330 88 q-395 0 -430 -276h203q17 75 68.5 111t144.5 36q101 0 155 -38.5t54 -110.5q0 -30 -6 -48.5t-21 -33.5t-48 -25t-77.5 -18t-120.5 -17q-190 -24 -264 -59q-133 -66 -133 -223zM236 1106v264h284v-264h-284zM279 1149h198v178h-198v-178zM309 293q0 90 74 129q55 27 152 39 q98 13 219 45v-127q0 -54 -13 -88t-45 -66q-83 -86 -211 -86q-83 0 -129.5 41t-46.5 113zM354 293q0 -54 34 -82.5t97 -28.5q115 0 183 74q25 26 34 52t9 71v74l-72 -19q-9 -2 -23 -3.5t-30 -4.5l-45 -8q-113 -21 -150 -44.5t-37 -80.5zM627 1106v264h284v-264h-284z M670 1149h198v178h-198v-178z" />
<glyph unicode="&#xe5;" horiz-adv-x="1101" d="M45 283q0 95 46 164t134 106q74 34 256 53q61 8 94 12t63.5 11t42.5 12t21.5 15.5t11 21t1.5 29.5q0 55 -40.5 81.5t-125.5 26.5q-88 0 -125 -32t-49 -117h-289q6 97 34 158t91 110q116 94 352 94q238 0 357 -96q54 -44 72 -97t18 -163q-6 -329 -6 -389q0 -118 8 -168.5 t37 -114.5h-312q-14 43 -16 78q-88 -59 -158.5 -82t-163.5 -23q-164 0 -259 83.5t-95 226.5zM88 283q0 -126 82.5 -196.5t230.5 -70.5q99 0 176.5 29.5t180.5 106.5q0 -74 12 -109h213q-22 81 -22 240q0 13 3 102t3 231v54q0 100 -15 145t-59 82q-108 88 -330 88 q-395 0 -430 -276h203q17 75 68.5 111t144.5 36q101 0 155 -38.5t54 -110.5q0 -30 -6 -48.5t-21 -33.5t-48 -25t-77.5 -18t-120.5 -17q-190 -24 -264 -59q-133 -66 -133 -223zM309 293q0 90 74 129q55 27 152 39q98 13 219 45v-127q0 -54 -13 -88t-45 -66q-83 -86 -211 -86 q-83 0 -129.5 41t-46.5 113zM311 1362q0 101 73 172.5t177 71.5q98 0 170 -73t72 -173q0 -103 -72.5 -175.5t-173.5 -72.5q-103 0 -174.5 73t-71.5 177zM354 293q0 -54 34 -82.5t97 -28.5q115 0 183 74q25 26 34 52t9 71v74l-72 -19q-9 -2 -23 -3.5t-30 -4.5l-45 -8 q-113 -21 -150 -44.5t-37 -80.5zM354 1360q0 -85 59 -145t144 -60q83 0 143 60t60 145q0 82 -59.5 142.5t-139.5 60.5q-86 0 -146.5 -59t-60.5 -144zM414 1362q0 58 42.5 99.5t102.5 41.5q57 0 99 -42.5t42 -100.5t-42 -100.5t-101 -42.5q-60 0 -101.5 42.5t-41.5 102.5z M457 1360q0 -41 29.5 -70.5t70.5 -29.5t70.5 29t29.5 69q0 41 -29 70.5t-69 29.5q-43 0 -72.5 -28.5t-29.5 -69.5z" />
<glyph unicode="&#xe6;" horiz-adv-x="1775" d="M51 279q0 142 92.5 216t305.5 103q172 23 213.5 31.5t56.5 21.5q18 18 18 58q0 106 -164 106q-94 0 -131.5 -31.5t-46.5 -119.5h-291q3 74 17.5 120t46.5 88q117 154 397 154q117 0 208.5 -30.5t135.5 -84.5q50 54 135 85.5t183 31.5q132 0 242 -59.5t171 -165.5 q79 -132 76 -383h-706q0 -227 217 -227q68 0 112.5 26.5t81.5 89.5h291q-65 -171 -185 -254.5t-304 -83.5q-124 0 -210.5 37t-154.5 117q-85 -85 -175 -119.5t-226 -34.5q-191 0 -298.5 81.5t-107.5 226.5zM94 279q0 -126 95.5 -196.5t267.5 -70.5q202 0 317 92q30 23 88 86 q74 -98 155 -138t208 -40q154 0 256.5 61.5t167.5 192.5h-201q-46 -60 -99 -87t-124 -27q-260 0 -260 288v23h708q0 214 -82 338q-60 89 -155 137.5t-211 48.5q-105 0 -180 -34t-138 -109q-28 38 -48 56.5t-50 35.5q-90 49 -244 49q-186 0 -293.5 -72t-121.5 -206h206 q13 79 65 115t152 36q101 0 154 -38t53 -111q0 -67 -43 -97q-22 -16 -67.5 -24.5t-214.5 -30.5q-194 -25 -277.5 -89.5t-83.5 -188.5zM328 295q0 85 78 125q32 15 75 24.5t144 22.5q52 6 155 29v-117q0 -91 -41 -146q-34 -43 -96 -70.5t-127 -27.5q-83 0 -135.5 44.5 t-52.5 115.5zM371 293q0 -53 39.5 -85t103.5 -32q60 0 115 26t80 66q26 42 26 111v63q-69 -12 -106 -16q-112 -15 -164.5 -30t-73 -37.5t-20.5 -65.5zM958 592q9 72 27.5 114t56.5 78q69 66 172 66q106 0 175 -66q36 -35 53.5 -78t25.5 -114h-510zM1010 633h407 q-15 82 -69 128t-134 46t-134.5 -46.5t-69.5 -127.5z" />
<glyph unicode="&#xe7;" horiz-adv-x="1099" d="M63 498q0 236 143.5 383t373.5 147q115 0 211 -38.5t161 -110.5q44 -51 66.5 -107.5t32.5 -146.5h-299q-15 88 -56 127t-118 39q-100 0 -155.5 -76t-55.5 -213q0 -136 55.5 -211.5t155.5 -75.5q79 0 124 47.5t60 147.5h291q-13 -190 -139 -309t-316 -124l-27 -43 q90 -5 129 -28q74 -46 74 -125q0 -88 -68 -140.5t-182 -52.5q-121 0 -233 52l51 112q93 -37 154 -37q36 0 57.5 14.5t21.5 37.5t-19 37t-50 14q-22 0 -74 -17l-59 54l88 127q-72 15 -111.5 31t-83.5 48q-99 72 -151 184t-52 253zM106 496q0 -129 48 -232t137 -168 q49 -35 98.5 -52.5t134.5 -31.5l-100 -153l18 -17q50 15 72 15q46 0 75 -25t29 -65q0 -41 -34 -68t-88 -27q-35 0 -134 27l-20 -43q81 -35 170 -35q98 0 158.5 44t60.5 116q0 55 -48.5 87t-133.5 32q-25 0 -43 -2l69 118q170 1 285 95t146 256h-207q-32 -106 -82.5 -150.5 t-138.5 -44.5q-120 0 -187 87.5t-67 242.5q0 156 67 244t187 88q169 0 210 -166h213q-23 146 -137 231.5t-284 85.5q-212 0 -343 -134.5t-131 -354.5z" />
<glyph unicode="&#xe8;" horiz-adv-x="1136" d="M61 483q0 236 146 387.5t375 151.5q230 0 367.5 -150t137.5 -401q0 -34 -2 -61h-712q7 -98 64.5 -152.5t152.5 -54.5q61 0 104 24t78 78h303q-54 -163 -180 -249.5t-311 -86.5q-237 0 -380 140.5t-143 373.5zM104 483q0 -215 131 -343t351 -128q151 0 260.5 63.5 t167.5 186.5h-217q-76 -100 -207 -100q-124 0 -191 74t-73 217h716q1 247 -121.5 386.5t-340.5 139.5q-209 0 -342.5 -139t-133.5 -357zM150 1384h354l198 -305h-229zM256 1341l236 -219h133l-146 219h-223zM326 586q17 123 82 186.5t174 63.5q107 0 170.5 -65t74.5 -185 h-501zM375 627h403q-15 80 -66.5 123t-133.5 43q-78 0 -131 -44t-72 -122z" />
<glyph unicode="&#xe9;" horiz-adv-x="1136" d="M61 483q0 236 146 387.5t375 151.5q230 0 367.5 -150t137.5 -401q0 -34 -2 -61h-712q7 -98 64.5 -152.5t152.5 -54.5q61 0 104 24t78 78h303q-54 -163 -180 -249.5t-311 -86.5q-237 0 -380 140.5t-143 373.5zM104 483q0 -215 131 -343t351 -128q151 0 260.5 63.5 t167.5 186.5h-217q-76 -100 -207 -100q-124 0 -191 74t-73 217h716q1 247 -121.5 386.5t-340.5 139.5q-209 0 -342.5 -139t-133.5 -357zM326 586q17 123 82 186.5t174 63.5q107 0 170.5 -65t74.5 -185h-501zM375 627h403q-15 80 -66.5 123t-133.5 43q-78 0 -131 -44 t-72 -122zM475 1079l191 305h350l-316 -305h-225zM555 1122h129l229 219h-219z" />
<glyph unicode="&#xea;" horiz-adv-x="1136" d="M61 483q0 236 146 387.5t375 151.5q230 0 367.5 -150t137.5 -401q0 -34 -2 -61h-712q7 -98 64.5 -152.5t152.5 -54.5q61 0 104 24t78 78h303q-54 -163 -180 -249.5t-311 -86.5q-237 0 -380 140.5t-143 373.5zM104 483q0 -215 131 -343t351 -128q151 0 260.5 63.5 t167.5 186.5h-217q-76 -100 -207 -100q-124 0 -191 74t-73 217h716q1 247 -121.5 386.5t-340.5 139.5q-209 0 -342.5 -139t-133.5 -357zM217 1079l236 305h260l235 -305h-262l-108 148l-111 -148h-250zM305 1122h139l136 176l129 -176h151l-170 219h-215zM326 586 q17 123 82 186.5t174 63.5q107 0 170.5 -65t74.5 -185h-501zM375 627h403q-15 80 -66.5 123t-133.5 43q-78 0 -131 -44t-72 -122z" />
<glyph unicode="&#xeb;" horiz-adv-x="1136" d="M61 483q0 236 146 387.5t375 151.5q230 0 367.5 -150t137.5 -401q0 -34 -2 -61h-712q7 -98 64.5 -152.5t152.5 -54.5q61 0 104 24t78 78h303q-54 -163 -180 -249.5t-311 -86.5q-237 0 -380 140.5t-143 373.5zM104 483q0 -215 131 -343t351 -128q151 0 260.5 63.5 t167.5 186.5h-217q-76 -100 -207 -100q-124 0 -191 74t-73 217h716q1 247 -121.5 386.5t-340.5 139.5q-209 0 -342.5 -139t-133.5 -357zM244 1106v264h284v-264h-284zM287 1149h198v178h-198v-178zM326 586q17 123 82 186.5t174 63.5q107 0 170.5 -65t74.5 -185h-501z M375 627h403q-15 80 -66.5 123t-133.5 43q-78 0 -131 -44t-72 -122zM635 1106v264h285v-264h-285zM678 1149h199v178h-199v-178z" />
<glyph unicode="&#xec;" horiz-adv-x="497" d="M-184 1384h354l199 -305h-230zM-78 1341l236 -219h133l-146 219h-223zM98 0v999h303v-999h-303zM141 43h217v913h-217v-913z" />
<glyph unicode="&#xed;" horiz-adv-x="497" d="M98 0v999h301v-999h-301zM141 43h215v913h-215v-913zM143 1079l191 305h350l-315 -305h-226zM223 1122h129l230 219h-220z" />
<glyph unicode="&#xee;" horiz-adv-x="497" d="M-102 1079l235 305h260l236 -305h-262l-109 148l-111 -148h-249zM-14 1122h139l135 176l129 -176h152l-170 219h-215zM98 0v999h301v-999h-301zM141 43h215v913h-215v-913z" />
<glyph unicode="&#xef;" horiz-adv-x="497" d="M-14 1106v264h217v-264h-217zM29 1149h131v178h-131v-178zM98 0v999h301v-999h-301zM141 43h215v913h-215v-913zM307 1106v264h217v-264h-217zM352 1149h129v178h-129v-178z" />
<glyph unicode="&#xf0;" horiz-adv-x="1200" d="M63 498q0 223 138 373.5t342 150.5q63 0 129 -25q-50 87 -135 148l-271 -144l-65 132l166 79q-88 21 -174 21q-31 0 -56 -2l21 172q115 14 172 14q89 0 156.5 -14.5t148.5 -50.5l229 125l72 -129l-152 -74q146 -89 229 -277.5t83 -431.5q0 -280 -129.5 -438t-384.5 -158 q-232 0 -375.5 146.5t-143.5 382.5zM106 496q0 -218 131 -352t345 -134q230 0 350.5 142t120.5 413q0 279 -111 475q-45 79 -95.5 130t-139.5 106l170 90l-31 51l-209 -112q-153 69 -307 69q-54 0 -133 -10l-11 -88q90 -2 154 -14t135 -43l-215 -107l25 -51l254 133 q87 -56 134 -118.5t70 -151.5q-71 32 -113 43.5t-91 11.5q-183 0 -308 -139.5t-125 -343.5zM324 496q0 152 69.5 242.5t186.5 90.5q123 0 190.5 -86.5t67.5 -244.5q0 -155 -69 -245.5t-189 -90.5q-114 0 -185 92.5t-71 241.5zM367 496q0 -130 59 -210.5t154 -80.5 q101 0 158 78.5t57 216.5q0 139 -56 213.5t-159 74.5q-98 0 -155.5 -79t-57.5 -213z" />
<glyph unicode="&#xf1;" horiz-adv-x="1136" d="M98 0v999h289v-94q73 66 142 93.5t159 27.5q95 0 174.5 -37.5t122.5 -103.5q31 -47 43 -104.5t12 -155.5v-625h-303v571q0 86 -14 127q-14 34 -50 54t-83 20q-54 0 -99 -25.5t-67 -68.5q-25 -51 -25 -162v-516h-301zM141 43h215v473q0 118 29 180q26 54 81.5 85.5 t123.5 31.5q61 0 107 -26t65 -70q18 -45 18 -146v-528h217v582q0 91 -10.5 142.5t-36.5 92.5q-37 57 -107.5 90t-154.5 33q-98 0 -173 -37.5t-169 -132.5v143h-205v-913zM244 1092q20 132 81.5 201t159.5 69q38 0 71 -10t132 -52q30 -12 62 -12q26 0 42 17.5t29 62.5h152 q-43 -264 -228 -264q-58 0 -174 41q-77 26 -104 26q-28 0 -43 -17t-29 -62h-151zM295 1135h67q23 44 45.5 60.5t57.5 16.5q41 0 119 -28q110 -37 161 -37q66 0 108.5 42.5t68.5 135.5h-68q-20 -42 -44.5 -60t-61.5 -18q-29 0 -48 6t-102 41q-66 25 -113 25q-70 0 -119 -47.5 t-71 -136.5z" />
<glyph unicode="&#xf2;" horiz-adv-x="1171" d="M70 500q0 238 144 383t382 145q226 0 366 -146t140 -382q0 -239 -141 -385t-373 -146q-233 0 -375.5 146.5t-142.5 384.5zM113 498q0 -219 130 -352.5t345 -133.5q214 0 342.5 133.5t128.5 354.5q0 218 -128 351.5t-337 133.5q-220 0 -350.5 -132t-130.5 -355zM160 1384 h354l199 -305h-230zM266 1341l236 -219h133l-146 219h-223zM330 498q0 157 68.5 245t191.5 88q117 0 185.5 -88.5t68.5 -240.5q0 -158 -68 -248t-188 -90t-189 89.5t-69 244.5zM373 500q0 -138 57 -215.5t158 -77.5q100 0 155.5 77.5t55.5 215.5q0 135 -56.5 211.5 t-154.5 76.5q-101 0 -158 -76t-57 -212z" />
<glyph unicode="&#xf3;" horiz-adv-x="1171" d="M70 500q0 238 144 383t382 145q226 0 366 -146t140 -382q0 -239 -141 -385t-373 -146q-233 0 -375.5 146.5t-142.5 384.5zM113 498q0 -219 130 -352.5t345 -133.5q214 0 342.5 133.5t128.5 354.5q0 218 -128 351.5t-337 133.5q-220 0 -350.5 -132t-130.5 -355zM330 498 q0 157 68.5 245t191.5 88q117 0 185.5 -88.5t68.5 -240.5q0 -158 -68 -248t-188 -90t-189 89.5t-69 244.5zM373 500q0 -138 57 -215.5t158 -77.5q100 0 155.5 77.5t55.5 215.5q0 135 -56.5 211.5t-154.5 76.5q-101 0 -158 -76t-57 -212zM485 1079l191 305h350l-315 -305 h-226zM565 1122h129l230 219h-219z" />
<glyph unicode="&#xf4;" horiz-adv-x="1171" d="M70 500q0 238 144 383t382 145q226 0 366 -146t140 -382q0 -239 -141 -385t-373 -146q-233 0 -375.5 146.5t-142.5 384.5zM113 498q0 -219 130 -352.5t345 -133.5q214 0 342.5 133.5t128.5 354.5q0 218 -128 351.5t-337 133.5q-220 0 -350.5 -132t-130.5 -355zM233 1079 l236 305h260l236 -305h-263l-108 148l-111 -148h-250zM322 1122h139l135 176l129 -176h152l-170 219h-215zM330 498q0 157 68.5 245t191.5 88q117 0 185.5 -88.5t68.5 -240.5q0 -158 -68 -248t-188 -90t-189 89.5t-69 244.5zM373 500q0 -138 57 -215.5t158 -77.5 q100 0 155.5 77.5t55.5 215.5q0 135 -56.5 211.5t-154.5 76.5q-101 0 -158 -76t-57 -212z" />
<glyph unicode="&#xf5;" horiz-adv-x="1171" d="M70 500q0 238 144 383t382 145q226 0 366 -146t140 -382q0 -239 -141 -385t-373 -146q-233 0 -375.5 146.5t-142.5 384.5zM113 498q0 -219 130 -352.5t345 -133.5q214 0 342.5 133.5t128.5 354.5q0 218 -128 351.5t-337 133.5q-220 0 -350.5 -132t-130.5 -355zM262 1092 q20 132 82 201t160 69q38 0 71 -10t132 -52q30 -12 61 -12q27 0 43 17.5t29 62.5h151q-43 -264 -227 -264q-58 0 -174 41q-77 26 -105 26q-27 0 -42 -17t-29 -62h-152zM313 1135h68q23 44 45 60.5t57 16.5q41 0 119 -28q110 -37 162 -37q66 0 108 42t68 136h-68 q-20 -42 -44.5 -60t-61.5 -18q-29 0 -48 6t-102 41q-66 25 -112 25q-71 0 -120 -47.5t-71 -136.5zM330 498q0 157 68.5 245t191.5 88q117 0 185.5 -88.5t68.5 -240.5q0 -158 -68 -248t-188 -90t-189 89.5t-69 244.5zM373 500q0 -138 57 -215.5t158 -77.5q100 0 155.5 77.5 t55.5 215.5q0 135 -56.5 211.5t-154.5 76.5q-101 0 -158 -76t-57 -212z" />
<glyph unicode="&#xf6;" horiz-adv-x="1171" d="M70 500q0 238 144 383t382 145q226 0 366 -146t140 -382q0 -239 -141 -385t-373 -146q-233 0 -375.5 146.5t-142.5 384.5zM113 498q0 -219 130 -352.5t345 -133.5q214 0 342.5 133.5t128.5 354.5q0 218 -128 351.5t-337 133.5q-220 0 -350.5 -132t-130.5 -355zM254 1106 v264h285v-264h-285zM297 1149h199v178h-199v-178zM330 498q0 157 68.5 245t191.5 88q117 0 185.5 -88.5t68.5 -240.5q0 -158 -68 -248t-188 -90t-189 89.5t-69 244.5zM373 500q0 -138 57 -215.5t158 -77.5q100 0 155.5 77.5t55.5 215.5q0 135 -56.5 211.5t-154.5 76.5 q-101 0 -158 -76t-57 -212zM645 1106v264h285v-264h-285zM688 1149h199v178h-199v-178z" />
<glyph unicode="&#xf7;" d="M-14 645v213h1050v-213h-1050zM29 688h964v127h-964v-127zM358 416q0 63 45.5 106t108.5 43q62 0 107 -43.5t45 -103.5q0 -61 -45.5 -105.5t-108.5 -44.5q-62 0 -107 44t-45 104zM360 1081q0 63 44.5 106.5t109.5 43.5q61 0 105.5 -44t44.5 -104q0 -62 -44.5 -105.5 t-107.5 -43.5t-107.5 43.5t-44.5 103.5zM401 418q0 -43 32.5 -75t76.5 -32q46 0 78.5 31.5t32.5 75.5q0 41 -32.5 72.5t-76.5 31.5q-46 0 -78.5 -30.5t-32.5 -73.5zM403 1081q0 -43 32.5 -73.5t76.5 -30.5q45 0 77 31t32 75q0 41 -32 73t-75 32q-46 0 -78.5 -31.5 t-32.5 -75.5z" />
<glyph unicode="&#xf8;" horiz-adv-x="1171" d="M27 14l141 158q-100 130 -100 326q0 233 145.5 381.5t372.5 148.5q149 0 266 -74l131 150l150 -131l-134 -152q101 -122 101 -319q0 -236 -142 -385.5t-368 -149.5q-142 0 -277 72l-137 -158zM88 16l84 -75l131 153q145 -84 289 -84q206 0 335.5 137t129.5 355 q0 101 -27.5 177t-87.5 142l131 148l-86 75l-129 -147q-72 51 -130.5 69.5t-143.5 18.5q-209 0 -341 -136t-132 -351q0 -100 27 -177t87 -149zM315 508q0 146 75.5 240t193.5 94q88 0 168 -68l-398 -450q-39 74 -39 184zM356 514q0 -45 15 -111l317 365q-42 31 -104 31 q-98 0 -163 -81t-65 -204zM412 217l401 457q21 -57 28 -94.5t7 -92.5q0 -152 -70.5 -242.5t-189.5 -90.5q-51 0 -91 14t-85 49zM477 225q56 -35 105 -35q98 0 160.5 82.5t62.5 212.5q0 44 -10 103z" />
<glyph unicode="&#xf9;" horiz-adv-x="1136" d="M100 373v626h303v-550q0 -76 4.5 -108t18.5 -54q37 -56 125 -56q113 0 164 97q24 47 24 176v495h301v-999h-288v90q-78 -65 -144.5 -91t-154.5 -26q-89 0 -162 32t-121 91q-70 87 -70 277zM141 1384h355l198 -305h-229zM143 373q0 -101 17 -162t57 -102q87 -93 236 -93 q97 0 167 33.5t173 128.5v-135h204v913h-215v-452q0 -84 -8.5 -130t-28.5 -79q-66 -105 -194 -105q-58 0 -102 22t-64 60q-25 49 -25 177v507h-217v-583zM248 1341l235 -219h133l-145 219h-223z" />
<glyph unicode="&#xfa;" horiz-adv-x="1136" d="M100 373v626h303v-550q0 -76 4.5 -108t18.5 -54q37 -56 125 -56q113 0 164 97q24 47 24 176v495h301v-999h-288v90q-78 -65 -144.5 -91t-154.5 -26q-89 0 -162 32t-121 91q-70 87 -70 277zM143 373q0 -101 17 -162t57 -102q87 -93 236 -93q97 0 167 33.5t173 128.5v-135 h204v913h-215v-452q0 -84 -8.5 -130t-28.5 -79q-66 -105 -194 -105q-58 0 -102 22t-64 60q-25 49 -25 177v507h-217v-583zM463 1079l190 305h351l-316 -305h-225zM543 1122h129l229 219h-219z" />
<glyph unicode="&#xfb;" horiz-adv-x="1136" d="M100 373v626h303v-550q0 -76 4.5 -108t18.5 -54q37 -56 125 -56q113 0 164 97q24 47 24 176v495h301v-999h-288v90q-78 -65 -144.5 -91t-154.5 -26q-89 0 -162 32t-121 91q-70 87 -70 277zM143 373q0 -101 17 -162t57 -102q87 -93 236 -93q97 0 167 33.5t173 128.5v-135 h204v913h-215v-452q0 -84 -8.5 -130t-28.5 -79q-66 -105 -194 -105q-58 0 -102 22t-64 60q-25 49 -25 177v507h-217v-583zM223 1079l236 305h260l235 -305h-262l-108 148l-111 -148h-250zM311 1122h140l135 176l129 -176h151l-170 219h-215z" />
<glyph unicode="&#xfc;" horiz-adv-x="1136" d="M98 373v626h303v-550q0 -76 4.5 -108t18.5 -54q37 -56 125 -56q113 0 164 97q24 47 24 176v495h301v-999h-288v90q-78 -65 -144.5 -91t-154.5 -26q-89 0 -162 32t-121 91q-70 87 -70 277zM141 373q0 -101 17 -162t57 -102q87 -93 236 -93q97 0 167 33.5t173 128.5v-135 h204v913h-215v-452q0 -84 -8.5 -130t-28.5 -79q-66 -105 -194 -105q-58 0 -102 22t-64 60q-25 49 -25 177v507h-217v-583zM238 1106v264h284v-264h-284zM281 1149h198v178h-198v-178zM629 1106v264h284v-264h-284zM672 1149h198v178h-198v-178z" />
<glyph unicode="&#xfd;" horiz-adv-x="995" d="M-31 999h326l207 -622l200 622h312l-361 -983q-55 -148 -91.5 -209.5t-92.5 -99.5q-50 -33 -98 -45t-142 -6l-32 2l-125 2v254h125q72 0 102.5 24t30.5 82q0 31 -8 50zM31 956l331 -872q11 -29 11 -64q0 -56 -27 -92.5t-76 -48.5q-20 -6 -155 -6v-172l84 -2h20 q108 0 151.5 9.5t86.5 43.5t71.5 87.5t81.5 193.5l342 923h-219l-233 -706l-238 706h-231zM406 1079l190 305h350l-315 -305h-225zM485 1122h129l230 219h-219z" />
<glyph unicode="&#xfe;" horiz-adv-x="1171" d="M96 -340v1706h301v-451q102 111 271 111q199 0 322.5 -147t123.5 -385q0 -233 -120 -376t-316 -143q-81 0 -157.5 27.5t-123.5 73.5v-416h-301zM139 -297h213v469q135 -156 322 -156q181 0 289 130t108 348q0 221 -111.5 355t-295.5 134q-93 0 -159.5 -34t-150.5 -124 l-2 498h-213v-1620zM344 498q0 152 68 236.5t190 84.5q116 0 183 -87t67 -236q0 -148 -67.5 -233t-184.5 -85q-120 0 -188 85.5t-68 234.5zM389 496q0 -130 56.5 -203.5t156.5 -73.5q97 0 152 73t55 202q0 131 -55 206.5t-152 75.5q-101 0 -157 -73.5t-56 -206.5z" />
<glyph unicode="&#xff;" horiz-adv-x="995" d="M-31 999h326l207 -622l200 622h312l-361 -983q-55 -148 -91.5 -209.5t-92.5 -99.5q-50 -33 -98 -45t-142 -6l-32 2l-125 2v254h125q72 0 102.5 24t30.5 82q0 31 -8 50zM31 956l331 -872q11 -29 11 -64q0 -56 -27 -92.5t-76 -48.5q-20 -6 -155 -6v-172l84 -2h20 q108 0 151.5 9.5t86.5 43.5t71.5 87.5t81.5 193.5l342 923h-219l-233 -706l-238 706h-231zM174 1106v264h285v-264h-285zM217 1149h199v178h-199v-178zM565 1106v264h285v-264h-285zM608 1149h199v178h-199v-178z" />
<glyph unicode="&#x152;" horiz-adv-x="2095" d="M74 674q0 205 83 369.5t231 257t333 92.5q183 0 301 -95v68h981v-283h-674v-239h594v-275h-594v-274h699v-295h-1006v76q-80 -59 -150.5 -83t-166.5 -24q-134 0 -251 53.5t-200.5 146.5t-131.5 224t-48 281zM117 672q0 -188 76 -339t210.5 -236t301.5 -85q104 0 179 32 t181 122v-123h920v209h-699v360h594v189h-594v325h674v197h-895v-115q-80 78 -157 110t-187 32q-174 0 -312 -86.5t-215 -241.5t-77 -350zM360 682q0 215 106.5 345t281.5 130q83 0 151 -34t111 -97q29 -43 39 -87t10 -134v-262q0 -152 -87 -243t-235 -91q-169 0 -273 130.5 t-104 342.5zM403 682q0 -194 91.5 -312t242.5 -118q129 0 204 78.5t75 212.5v286q0 70 -11 110.5t-40 78.5q-79 98 -217 98q-157 0 -251 -118t-94 -316z" />
<glyph unicode="&#x153;" horiz-adv-x="1775" d="M57 500q0 239 140 384.5t370 145.5q112 0 199 -36.5t137 -104.5q123 141 340 141q234 0 364 -157t130 -441v-16h-709q9 -110 63 -162.5t158 -52.5q68 0 110 23.5t83 86.5h289q-52 -161 -180.5 -250.5t-307.5 -89.5q-122 0 -201.5 33.5t-148.5 112.5q-75 -82 -151 -114 t-195 -32q-222 0 -356 144.5t-134 384.5zM100 500q0 -223 121.5 -354.5t325.5 -131.5q122 0 197.5 38t148.5 136q72 -98 148 -136t202 -38q298 0 426 254h-203q-54 -64 -100.5 -87t-120.5 -23q-262 0 -262 301h709q-1 247 -121.5 387.5t-329.5 140.5q-113 0 -190.5 -39 t-149.5 -131q-59 91 -136.5 130.5t-197.5 39.5q-212 0 -339.5 -133t-127.5 -354zM317 500q0 160 67 249t187 89q110 0 172 -86.5t62 -241.5q0 -167 -62.5 -256.5t-179.5 -89.5t-181.5 88t-64.5 248zM360 502q0 -143 52.5 -220t150.5 -77q97 0 147 77t50 228q0 136 -50 210.5 t-141 74.5q-99 0 -154 -77.5t-55 -215.5zM977 592q13 124 79.5 190t176.5 66q107 0 173 -68t73 -188h-502zM1028 635h402q-13 78 -67.5 124t-131.5 46t-134 -47.5t-69 -122.5z" />
<glyph unicode="&#x178;" horiz-adv-x="1277" d="M-33 1366h375q10 -17 110 -190t150 -265l41 -71q33 63 74.5 136.5t72 125.5t80 136.5t74.5 127.5h369l-510 -840v-526h-326v530zM43 1323l477 -782v-498h240v494l475 786h-264q-28 -48 -80 -135.5t-94 -159.5t-78 -137l-76 -127q-76 121 -76 127q-36 65 -78.5 137.5 t-93.5 159t-80 135.5h-272zM313 1497v264h285v-264h-285zM356 1540h199v178h-199v-178zM705 1499v262h284v-262h-284zM748 1540h198v178h-198v-178z" />
<glyph unicode="&#x2c6;" d="M147 1079l236 305h260l236 -305h-263l-108 148l-111 -148h-250zM236 1122h139l135 176l129 -176h152l-170 219h-215z" />
<glyph unicode="&#x2dc;" d="M147 1092q20 132 82 201t160 69q38 0 71 -10t132 -52q30 -12 61 -12q27 0 43 17.5t29 62.5h152q-43 -264 -228 -264q-58 0 -174 41q-77 26 -104 26q-28 0 -43 -17t-29 -62h-152zM199 1135h67q23 44 45.5 60.5t57.5 16.5q40 0 118 -28q110 -37 162 -37q66 0 108 42t68 136 h-67q-38 -78 -107 -78q-29 0 -47 5.5t-102 41.5q-66 25 -113 25q-70 0 -119 -47.5t-71 -136.5z" />
<glyph unicode="&#x2000;" horiz-adv-x="972" />
<glyph unicode="&#x2001;" horiz-adv-x="1944" />
<glyph unicode="&#x2002;" horiz-adv-x="972" />
<glyph unicode="&#x2003;" horiz-adv-x="1944" />
<glyph unicode="&#x2004;" horiz-adv-x="648" />
<glyph unicode="&#x2005;" horiz-adv-x="486" />
<glyph unicode="&#x2006;" horiz-adv-x="324" />
<glyph unicode="&#x2007;" horiz-adv-x="324" />
<glyph unicode="&#x2008;" horiz-adv-x="243" />
<glyph unicode="&#x2009;" horiz-adv-x="388" />
<glyph unicode="&#x200a;" horiz-adv-x="108" />
<glyph unicode="&#x2010;" horiz-adv-x="600" d="M0 389v275h600v-275h-600zM43 432h514v189h-514v-189z" />
<glyph unicode="&#x2011;" horiz-adv-x="600" d="M0 389v275h600v-275h-600zM43 432h514v189h-514v-189z" />
<glyph unicode="&#x2012;" horiz-adv-x="600" d="M0 389v275h600v-275h-600zM43 432h514v189h-514v-189z" />
<glyph unicode="&#x2013;" horiz-adv-x="1136" d="M98 391v271h942v-271h-942zM141 434h856v184h-856v-184z" />
<glyph unicode="&#x2014;" horiz-adv-x="1509" d="M0 391v271h1509v-271h-1509zM43 434h1423v184h-1423v-184z" />
<glyph unicode="&#x2018;" horiz-adv-x="604" d="M133 754v231q0 106 19 175t63 114q45 50 96.5 73t145.5 37v-163q-63 -19 -93.5 -54t-35.5 -92h129v-321h-324zM176 797h238v235h-133q2 89 32.5 139.5t100.5 79.5v82q-129 -31 -183.5 -110.5t-54.5 -237.5v-188z" />
<glyph unicode="&#x2019;" horiz-adv-x="604" d="M143 733v166q59 19 89.5 53.5t37.5 91.5h-127v322h324v-229q0 -187 -78 -278.5t-246 -125.5zM186 788q123 29 180.5 113.5t57.5 235.5v186h-238v-236h131q3 -161 -131 -217v-82z" />
<glyph unicode="&#x201a;" horiz-adv-x="604" d="M143 0v322h324v-244q0 -95 -21.5 -159.5t-68.5 -111.5q-92 -92 -234 -116v164q111 34 129 145h-129zM186 43h131q3 -162 -131 -217v-82q127 41 182.5 119t55.5 215v201h-238v-236z" />
<glyph unicode="&#x201c;" horiz-adv-x="923" d="M111 756v241q0 175 67.5 263.5t229.5 123.5v-157q-60 -19 -87.5 -52.5t-33.5 -97.5h121v-321h-297zM154 799h211v235h-125q1 94 30 144.5t95 76.5v76q-114 -35 -162.5 -112t-48.5 -222v-198zM508 756v223q0 110 17.5 177t60.5 118q78 90 219 115v-160q-61 -17 -89.5 -53 t-31.5 -99h121v-321h-297zM551 799h211v235h-125q2 95 30 146t95 80v73q-117 -35 -164 -114t-47 -240v-180z" />
<glyph unicode="&#x201d;" horiz-adv-x="923" d="M113 733v160q62 20 89.5 53t33.5 96h-123v324h299v-236q0 -101 -17 -163t-59 -113q-39 -49 -88.5 -75.5t-134.5 -45.5zM156 788q61 17 100 46t68 79q25 41 35 89.5t10 127.5v193h-213v-238h125v-4q3 -25 -4 -63.5t-19 -61.5q-17 -35 -39 -55t-63 -37v-76zM508 737v158 q63 20 89 52t34 97h-123v322h299v-240q0 -172 -72.5 -266.5t-226.5 -122.5zM553 788q115 40 163 116.5t48 219.5v199h-211v-238h123q1 -89 -28 -141t-95 -80v-76z" />
<glyph unicode="&#x201e;" horiz-adv-x="923" d="M115 0v322h299v-234q0 -100 -17.5 -163t-60.5 -115q-41 -48 -91 -75t-130 -42v157q63 22 89 54.5t34 95.5h-123zM158 43h125v-16q0 -79 -28.5 -126t-96.5 -79v-76q64 20 101.5 47.5t66.5 77.5q45 72 45 217v191h-213v-236zM510 0v319h299v-237q0 -172 -73.5 -266.5 t-225.5 -120.5v155q59 17 88 52t35 98h-123zM555 43h123q3 -87 -27 -140t-96 -81v-76q119 44 165 117.5t46 218.5v197h-211v-236z" />
<glyph unicode="&#x2022;" horiz-adv-x="1366" d="M381 696q0 125 89 212t218 87q122 0 209.5 -88t87.5 -211t-88.5 -211t-212.5 -88q-125 0 -214 88t-89 211zM424 696q0 -106 76.5 -181t183.5 -75q106 0 182 75t76 181q0 104 -76 180t-180 76q-109 0 -185.5 -74.5t-76.5 -181.5z" />
<glyph unicode="&#x2026;" horiz-adv-x="1810" d="M135 0v330h334v-330h-334zM178 43h248v244h-248v-244zM739 0v330h334v-330h-334zM782 43h248v244h-248v-244zM1343 0v330h334v-330h-334zM1386 43h248v244h-248v-244z" />
<glyph unicode="&#x202f;" horiz-adv-x="388" />
<glyph unicode="&#x2039;" horiz-adv-x="460" d="M55 381v264l330 258v-270l-154 -119l154 -123v-272zM98 401l244 -192v164l-182 141l182 139v160l-244 -188v-224z" />
<glyph unicode="&#x203a;" horiz-adv-x="460" d="M76 121v268l155 121l-155 123v272l330 -260v-268zM119 209l243 188v228l-243 192v-164l182 -143l-182 -141v-160z" />
<glyph unicode="&#x205f;" horiz-adv-x="486" />
<glyph unicode="&#x20ac;" horiz-adv-x="1464" d="M88 481l74 174h104v52h-178l74 176h127q32 108 60 165.5t75 114.5q191 232 520 232q125 0 222.5 -32t207.5 -108l-145 -337q-62 105 -123.5 145.5t-159.5 40.5q-113 0 -184 -52t-115 -169h570l-76 -176h-523v-52h500l-74 -174h-397q46 -115 117 -167t182 -52 q102 0 165 46t136 175v-448q-158 -64 -303 -64q-162 0 -295 59t-227 173q-46 57 -73.5 114.5t-59.5 163.5h-201zM147 520h175q28 -114 60.5 -181.5t92.5 -133.5q84 -95 205 -145t264 -50q132 0 264 51v281q-59 -63 -120.5 -91t-143.5 -28q-168 0 -268 121q-27 32 -43 68.5 t-37 107.5h422l41 96h-477q-4 33 -4 68v6l2 45v13h534l41 94h-561q21 70 38 107.5t44 70.5q101 123 268 123q89 0 155.5 -32.5t125.5 -104.5l100 235q-94 62 -182.5 88.5t-198.5 26.5q-154 0 -281 -58.5t-214 -167.5q-49 -63 -75.5 -123t-51.5 -165h-134l-41 -94h160 q-2 -10 -2 -62v-2q0 -35 4 -68h-121z" />
<glyph unicode="&#x2122;" horiz-adv-x="1888" d="M20 1180v186h728v-186h-254v-635h-220v635h-254zM63 1219h254v-635h134v635h254v108h-642v-108zM864 545v821h289l127 -352q36 -99 51 -156q30 94 51 156l123 352h287v-821h-217v332q0 86 2 129q-23 -68 -50 -146t-59 -170t-51 -145h-176l-164 454l2 -454h-215zM907 584 h129v665q82 -245 113 -327l125 -338h110q128 356 234 663v-663h131v743h-213q-16 -47 -46.5 -134.5t-55 -159t-45.5 -136.5l-58 -168q-54 167 -92 270l-119 328h-213v-743z" />
<glyph unicode="&#xe000;" horiz-adv-x="1003" d="M0 0v1004h1004v-1004h-1004z" />
</font>
</defs>
</svg>
